<?xml version="1.0" standalone="no"?>
<!DOCTYPE svg PUBLIC "-//W3C//DTD SVG 20010904//EN"
 "http://www.w3.org/TR/2001/REC-SVG-20010904/DTD/svg10.dtd">
<svg version="1.0" xmlns="http://www.w3.org/2000/svg"
 width="500.000000pt" height="500.000000pt" viewBox="0 0 500.000000 500.000000"
 preserveAspectRatio="xMidYMid meet">

<g transform="translate(0.000000,500.000000) scale(0.100000,-0.100000)"
fill="#000000" stroke="none">
<path d="M2380 4259 c-253 -13 -454 -69 -690 -190 -164 -84 -286 -175 -435
-324 -145 -145 -236 -266 -319 -425 -141 -272 -198 -505 -198 -815 0 -189 17
-325 59 -475 199 -720 850 -1251 1576 -1288 362 -19 639 36 927 184 177 91
295 178 445 329 146 146 239 269 319 425 142 276 198 507 198 825 -1 311 -57
543 -198 815 -83 159 -174 280 -319 425 -149 149 -271 240 -435 324 -298 153
-570 209 -930 190z m678 -694 c64 -61 -1 -170 -86 -146 -28 8 -36 2 -181 -143
-146 -147 -152 -153 -141 -180 13 -35 4 -68 -26 -97 -49 -46 -134 -18 -147 49
-5 26 -12 28 -129 53 l-123 26 -27 -29 c-28 -30 -35 -31 -109 -16 -10 2 -75
-50 -162 -130 -136 -125 -145 -135 -136 -158 32 -85 -80 -156 -147 -93 -18 17
-24 33 -24 64 0 68 56 103 127 81 17 -6 46 16 165 126 l143 132 -3 48 c-3 40
0 51 22 73 47 47 124 27 145 -38 11 -33 13 -34 132 -61 l121 -28 28 27 c30 28
67 36 106 22 19 -7 42 14 165 144 84 88 143 158 141 168 -8 51 -2 84 18 106
38 40 87 40 128 0z m52 -495 l0 -89 55 -41 c172 -127 224 -368 119 -548 l-26
-44 42 -43 c23 -24 54 -46 69 -49 31 -7 227 -192 236 -223 5 -17 -4 -33 -36
-68 -61 -66 -79 -63 -171 33 -109 112 -138 147 -138 169 0 29 -74 96 -98 89
-53 -17 -52 -12 -50 -432 l3 -389 243 -5 c151 -3 242 -9 242 -15 0 -7 -372
-11 -1090 -13 -965 -2 -1090 0 -1090 13 0 12 15 15 75 15 l75 0 0 302 c0 266
2 304 17 320 14 15 32 18 119 18 80 0 106 -3 118 -16 14 -13 16 -56 16 -320
l0 -304 205 0 205 0 0 586 c0 384 -4 592 -10 605 -9 17 -22 19 -100 19 -67 0
-92 -4 -104 -16 -14 -14 -16 -79 -16 -570 0 -363 -3 -554 -10 -554 -7 0 -10
194 -10 562 0 508 2 563 17 580 23 25 207 27 235 1 17 -15 18 -47 18 -615 l0
-598 80 0 80 0 0 429 c0 377 2 431 16 445 11 12 35 16 85 16 38 0 69 2 69 5 0
3 -13 23 -29 46 -47 64 -65 131 -65 234 0 104 20 164 78 244 60 81 159 142
269 166 26 5 27 7 27 75 l0 70 115 0 115 0 0 -90z"/>
<path d="M2950 3550 c-11 -11 -20 -31 -20 -45 0 -14 9 -34 20 -45 11 -11 31
-20 45 -20 14 0 34 9 45 20 11 11 20 31 20 45 0 14 -9 34 -20 45 -11 11 -31
20 -45 20 -14 0 -34 -9 -45 -20z"/>
<path d="M2110 3223 c-63 -23 -44 -125 23 -125 78 0 93 111 17 126 -14 3 -32
2 -40 -1z"/>
<path d="M2520 3110 c-11 -11 -20 -31 -20 -45 0 -32 8 -32 20 0 5 14 24 34 42
45 l33 20 -27 0 c-16 0 -37 -9 -48 -20z"/>
<path d="M1660 2810 c-24 -24 -26 -59 -5 -86 14 -18 14 -17 15 14 0 34 29 72
56 72 8 0 12 5 9 10 -10 17 -54 11 -75 -10z"/>
<path d="M2851 2989 c-117 -20 -236 -113 -289 -227 -24 -50 -27 -69 -27 -162
0 -93 3 -112 27 -162 37 -80 107 -152 187 -191 61 -30 72 -32 171 -32 99 0
110 2 171 32 79 39 150 111 185 188 132 288 -112 606 -425 554z m223 -73 c66
-33 129 -99 164 -174 23 -49 27 -70 27 -147 0 -78 -4 -97 -27 -141 -52 -100
-122 -159 -218 -188 -235 -70 -466 117 -448 363 11 145 120 275 262 312 60 16
183 3 240 -25z"/>
<path d="M2775 2891 c-51 -23 -118 -88 -145 -140 -83 -163 -17 -360 148 -445
19 -10 36 -16 38 -13 2 2 3 142 2 310 l-3 306 -40 -18z"/>
<path d="M3170 2606 c0 -131 4 -196 11 -196 5 0 22 26 37 58 35 76 36 182 2
259 -45 106 -50 95 -50 -121z"/>
<path d="M3215 2300 c-19 -20 -18 -22 18 -58 l37 -37 22 23 22 22 -34 35 c-19
19 -37 35 -40 35 -4 0 -15 -9 -25 -20z"/>
<path d="M2460 2281 c-6 -13 -10 -168 -10 -435 l0 -416 115 0 115 0 0 375 c0
243 4 375 10 375 6 0 10 -132 10 -375 l0 -375 90 0 90 0 -2 376 -3 377 -52 13
c-63 16 -119 44 -161 79 -27 22 -39 25 -111 25 -69 0 -82 -3 -91 -19z"/>
<path d="M3309 2211 c-16 -16 -29 -35 -29 -41 0 -6 20 -32 45 -58 l45 -47 0
48 c0 33 6 53 19 66 19 19 19 20 -3 40 -30 28 -42 27 -77 -8z"/>
<path d="M1610 2040 c-13 -8 -15 -53 -15 -307 l0 -298 113 -3 112 -3 0 291 c0
182 -4 299 -10 311 -9 17 -22 19 -98 19 -48 0 -94 -5 -102 -10z"/>
</g>
</svg>
