<?xml version="1.0" standalone="no"?>
<!DOCTYPE svg PUBLIC "-//W3C//DTD SVG 20010904//EN"
 "http://www.w3.org/TR/2001/REC-SVG-20010904/DTD/svg10.dtd">
<svg version="1.0" xmlns="http://www.w3.org/2000/svg"
 width="500.000000pt" height="500.000000pt" viewBox="0 0 500.000000 500.000000"
 preserveAspectRatio="xMidYMid meet">

<g transform="translate(0.000000,500.000000) scale(0.100000,-0.100000)"
fill="#000000" stroke="none">
<path d="M2380 4259 c-253 -13 -454 -69 -690 -190 -164 -84 -286 -175 -435
-324 -145 -145 -236 -266 -319 -425 -141 -272 -198 -505 -198 -815 0 -189 17
-325 59 -475 199 -720 850 -1251 1576 -1288 362 -19 639 36 927 184 177 91
295 178 445 329 146 146 239 269 319 425 142 276 198 507 198 825 -1 311 -57
543 -198 815 -83 159 -174 280 -319 425 -149 149 -271 240 -435 324 -298 153
-570 209 -930 190z m296 -895 c302 -44 519 -167 654 -372 76 -115 95 -182 94
-337 0 -120 -3 -137 -33 -225 -105 -308 -378 -628 -869 -1021 -68 -55 -135
-102 -149 -105 -14 -4 -39 -2 -57 3 -17 5 -129 85 -248 176 -190 147 -219 172
-229 205 -9 31 -8 45 5 75 13 31 38 52 156 128 77 51 140 95 140 98 0 4 -35
13 -77 20 -155 26 -321 91 -424 166 -54 40 -104 110 -120 168 -6 24 -9 157 -7
360 3 370 4 372 100 467 178 174 632 257 1064 194z"/>
<path d="M2183 3310 c-207 -23 -421 -100 -522 -187 -116 -99 -104 -219 30
-318 336 -247 1171 -224 1435 40 56 56 71 96 61 161 -18 111 -214 229 -474
285 -110 23 -402 34 -530 19z m413 -120 c96 -23 125 -34 182 -74 57 -40 84
-85 84 -142 0 -71 -46 -125 -147 -174 -97 -46 -205 -63 -369 -58 -119 4 -153
9 -219 32 -147 50 -217 115 -217 201 0 102 101 182 275 219 105 22 311 20 411
-4z"/>
<path d="M2274 3140 c-142 -20 -267 -79 -290 -136 -42 -102 153 -198 401 -198
188 0 354 56 399 133 19 34 19 34 0 70 -24 44 -111 94 -204 115 -84 19 -229
27 -306 16z"/>
<path d="M3249 2913 c-7 -26 -31 -69 -54 -97 -22 -28 -53 -73 -69 -100 -84
-144 -413 -422 -853 -721 -89 -60 -162 -112 -162 -115 1 -11 429 -362 438
-358 5 1 49 36 97 77 l86 73 -62 63 c-47 47 -61 68 -58 86 6 45 37 35 107 -35
l67 -66 72 73 73 74 -66 54 c-48 38 -65 59 -63 74 6 38 43 30 110 -24 35 -28
66 -50 70 -49 13 5 118 133 118 144 0 7 -16 24 -35 38 -45 34 -67 68 -59 90
11 28 47 17 95 -30 l46 -45 53 82 c176 274 209 495 104 700 -13 26 -28 50 -33
53 -4 3 -14 -15 -22 -41z"/>
<path d="M1580 2588 c0 -255 5 -274 81 -343 l44 -40 5 125 c5 122 5 125 29
128 13 2 28 -2 32 -10 5 -7 9 -74 9 -148 l0 -135 73 -28 c39 -15 75 -27 79
-27 4 0 9 55 10 121 3 101 6 124 20 132 12 8 21 7 32 -2 13 -11 16 -37 16
-142 0 -142 -5 -132 75 -144 22 -3 50 -8 63 -11 22 -4 22 -4 22 120 0 100 3
126 16 137 11 9 20 10 32 2 14 -8 17 -31 20 -137 1 -69 5 -126 9 -126 8 0 182
125 347 249 196 147 428 352 414 366 -3 3 -27 -4 -54 -15 -170 -73 -474 -112
-709 -91 -282 26 -500 97 -620 203 l-45 40 0 -224z"/>
<path d="M1975 1793 c-106 -73 -109 -67 140 -260 116 -90 218 -163 228 -163
16 0 146 89 146 100 0 5 -427 363 -438 368 -4 1 -38 -19 -76 -45z"/>
</g>
</svg>
