<?xml version="1.0" standalone="no"?>
<!DOCTYPE svg PUBLIC "-//W3C//DTD SVG 20010904//EN"
 "http://www.w3.org/TR/2001/REC-SVG-20010904/DTD/svg10.dtd">
<svg version="1.0" xmlns="http://www.w3.org/2000/svg"
 width="500.000000pt" height="500.000000pt" viewBox="0 0 500.000000 500.000000"
 preserveAspectRatio="xMidYMid meet">

<g transform="translate(0.000000,500.000000) scale(0.100000,-0.100000)"
fill="#000000" stroke="none">
<path d="M2380 4259 c-253 -13 -454 -69 -690 -190 -164 -84 -286 -175 -435
-324 -145 -145 -236 -266 -319 -425 -141 -272 -198 -505 -198 -815 0 -189 17
-325 59 -475 199 -720 850 -1251 1576 -1288 362 -19 639 36 927 184 177 91
295 178 445 329 146 146 239 269 319 425 142 276 198 507 198 825 -1 311 -57
543 -198 815 -83 159 -174 280 -319 425 -149 149 -271 240 -435 324 -298 153
-570 209 -930 190z m660 -620 c187 -40 246 -287 99 -413 -22 -18 -60 -39 -84
-46 l-45 -13 6 -38 c5 -30 1 -51 -20 -93 -26 -53 -69 -92 -196 -179 -64 -43
-70 -68 -70 -289 l1 -193 32 -20 c18 -11 41 -37 52 -57 15 -28 28 -38 55 -43
80 -15 118 -61 127 -153 3 -34 13 -65 24 -77 94 -105 13 -294 -139 -326 -31
-6 -77 -26 -103 -44 -26 -18 -63 -35 -81 -39 -21 -4 -48 -21 -69 -42 -51 -54
-101 -74 -190 -74 -66 0 -80 3 -122 30 -26 16 -47 34 -47 40 0 6 -15 8 -39 4
-58 -9 -139 18 -181 61 -31 32 -35 43 -36 88 0 32 -9 70 -22 97 -35 74 -24
159 27 204 17 15 20 26 15 55 -12 72 41 178 97 196 17 6 19 16 19 95 0 75 -3
91 -17 98 -30 16 -87 22 -118 14 -27 -8 -31 -13 -38 -63 -10 -71 -32 -100 -95
-121 -28 -10 -72 -33 -97 -52 -53 -41 -93 -51 -191 -50 -91 0 -152 24 -199 76
-49 53 -66 97 -66 168 -1 110 57 198 155 235 68 26 215 18 276 -15 96 -54 145
-167 117 -275 -15 -59 -12 -65 23 -37 17 13 25 35 31 77 11 86 30 100 129 100
74 0 82 -2 107 -28 27 -26 28 -32 26 -111 l-2 -83 42 -6 c35 -5 46 -2 67 17
14 13 35 29 48 35 12 6 22 18 22 27 0 12 10 14 53 9 96 -11 122 -16 145 -31
21 -14 27 -13 66 6 l43 20 7 202 c4 110 12 212 17 227 15 38 46 68 116 113 34
22 83 62 108 90 43 48 46 54 43 102 l-3 51 -55 6 c-142 15 -224 102 -224 239
0 173 153 272 354 229z m-839 -395 c86 -47 130 -145 109 -240 -6 -26 -15 -55
-20 -65 -9 -16 -5 -20 30 -30 47 -14 68 -35 53 -50 -7 -7 -26 -5 -62 8 -42 14
-54 15 -69 5 -54 -39 -105 -54 -188 -53 -129 0 -195 40 -239 144 -41 100 5
236 98 283 78 41 211 40 288 -2z m1243 -254 c27 -19 65 -57 84 -85 31 -46 34
-55 29 -106 -9 -98 -70 -182 -152 -209 -56 -19 -203 -9 -245 16 -52 30 -97 95
-110 159 -21 99 20 187 110 240 41 24 53 25 140 23 91 -3 98 -5 144 -38z
m-1036 -263 c3 -62 1 -67 -18 -67 -18 0 -20 6 -20 63 0 35 3 67 7 71 17 17 28
-6 31 -67z m0 -206 c-2 -51 -6 -66 -18 -66 -11 0 -16 15 -18 59 -4 70 2 88 23
80 13 -5 15 -20 13 -73z m902 -23 c0 -28 -35 -87 -56 -95 -32 -12 -38 14 -10
47 14 17 26 40 26 51 0 12 7 19 20 19 14 0 20 -7 20 -22z m-343 -94 c4 -11 -3
-24 -21 -37 -15 -11 -32 -30 -37 -43 -13 -35 -39 -31 -39 5 0 21 10 38 35 60
40 35 53 38 62 15z m181 0 c22 -4 30 -28 12 -39 -11 -7 -102 4 -120 15 -7 4
-10 15 -7 24 6 16 36 16 115 0z"/>
<path d="M2834 3581 c-119 -54 -141 -226 -42 -318 26 -24 98 -53 132 -53 40 0
95 21 127 47 85 72 91 224 12 295 -51 47 -160 60 -229 29z m106 -91 c0 -13 -7
-20 -20 -20 -13 0 -20 7 -20 20 0 13 7 20 20 20 13 0 20 -7 20 -20z m74 -66
c23 -9 19 -33 -7 -39 -12 -3 -58 -5 -102 -3 -65 2 -80 6 -83 20 -3 13 6 18 40
21 78 7 136 7 152 1z m-70 -114 c-13 -13 -44 -2 -44 15 0 20 23 25 40 9 10
-10 11 -17 4 -24z"/>
<path d="M1522 2640 c-88 -21 -152 -102 -152 -193 0 -88 42 -155 118 -188 94
-41 200 -12 257 69 27 39 30 52 30 116 0 62 -4 78 -27 113 -42 64 -147 103
-226 83z m133 -200 c0 -12 -16 -16 -74 -18 -73 -3 -100 6 -86 28 4 7 34 10 83
8 61 -2 77 -6 77 -18z"/>
<path d="M2423 2333 c-6 -5 -13 -24 -15 -43 -4 -46 -35 -55 -40 -11 -3 30 -3
30 -27 12 l-23 -18 26 -26 c14 -14 26 -31 26 -37 0 -5 16 -10 35 -10 42 0 98
-26 92 -43 -4 -13 -20 -13 -79 -2 -33 7 -40 4 -65 -22 -15 -16 -33 -38 -39
-48 -9 -16 -15 -17 -24 -8 -16 15 -7 52 20 80 27 29 26 37 -11 67 -21 18 -42
26 -69 26 l-39 0 -3 -57 c-2 -44 -7 -58 -18 -58 -11 0 -16 14 -20 50 l-5 50
-28 -29 c-58 -61 -55 -145 9 -215 30 -34 32 -40 19 -51 -14 -11 -22 -7 -54 25
l-39 37 -16 -24 c-43 -66 -20 -153 56 -208 62 -46 58 -60 -17 -48 -15 2 -19
-2 -17 -17 9 -51 81 -90 157 -83 48 4 56 25 26 64 -21 27 -28 69 -13 78 12 7
26 -6 39 -36 23 -52 76 -69 135 -43 12 5 20 2 25 -10 10 -27 -23 -45 -80 -45
-44 0 -48 -2 -45 -22 4 -30 57 -58 121 -65 100 -10 173 32 214 125 25 56 48
65 48 19 -1 -15 3 -27 8 -27 16 0 63 29 86 54 19 20 34 26 68 26 52 0 92 18
126 59 48 58 58 138 23 186 -12 17 -14 17 -43 -5 -51 -37 -73 -7 -25 35 23 20
27 31 26 73 0 31 -7 61 -19 79 l-19 28 -7 -38 c-13 -78 -51 -75 -42 3 l6 50
-39 0 c-21 0 -45 -4 -53 -9 -8 -5 -20 -7 -28 -4 -22 8 -15 33 13 43 l26 10
-19 32 c-24 42 -41 46 -45 11 -2 -20 -9 -28 -23 -28 -15 0 -21 8 -23 33 -4 35
-5 36 -32 22 -18 -10 -18 -12 7 -55 25 -45 25 -75 1 -75 -8 0 -22 19 -33 42
-25 54 -88 99 -146 105 -24 2 -49 0 -56 -4z m-18 -383 c19 -37 56 -48 91 -26
14 10 28 24 31 32 6 16 29 19 38 5 3 -5 0 -21 -6 -35 -23 -49 38 -78 76 -36
23 25 45 26 45 1 0 -52 -105 -81 -148 -41 -15 14 -35 20 -67 20 -38 0 -52 5
-76 29 -17 17 -29 40 -29 55 0 36 26 33 45 -4z"/>
<path d="M1945 3211 c-48 -22 -69 -44 -90 -94 -19 -47 -19 -100 1 -140 66
-131 220 -158 311 -54 84 96 60 232 -51 283 -61 28 -117 30 -171 5z m103 -103
c3 -36 5 -37 45 -40 59 -4 59 -32 0 -36 -42 -3 -42 -3 -45 -45 -2 -29 -8 -42
-18 -42 -10 0 -16 13 -18 42 -3 42 -3 42 -45 45 -59 4 -58 32 1 36 42 3 42 3
42 43 0 33 3 40 18 37 12 -2 18 -14 20 -40z"/>
<path d="M3195 2972 c-71 -34 -105 -87 -105 -164 0 -136 144 -227 265 -168 67
33 100 86 100 165 0 51 -5 69 -28 104 -47 71 -154 100 -232 63z m61 -114 c20
-18 21 -18 39 2 10 11 24 20 31 20 24 0 26 -22 3 -46 l-22 -24 21 -23 c43 -46
19 -77 -28 -37 -13 11 -27 20 -31 20 -5 0 -14 -9 -21 -20 -13 -21 -43 -27 -53
-11 -3 5 6 22 19 38 l24 28 -24 28 c-19 23 -22 32 -13 43 12 15 22 12 55 -18z"/>
</g>
</svg>
