<?xml version="1.0" standalone="no"?>
<!DOCTYPE svg PUBLIC "-//W3C//DTD SVG 20010904//EN"
 "http://www.w3.org/TR/2001/REC-SVG-20010904/DTD/svg10.dtd">
<svg version="1.0" xmlns="http://www.w3.org/2000/svg"
 width="500.000000pt" height="500.000000pt" viewBox="0 0 500.000000 500.000000"
 preserveAspectRatio="xMidYMid meet">

<g transform="translate(0.000000,500.000000) scale(0.100000,-0.100000)"
fill="#000000" stroke="none">
<path d="M2380 4259 c-253 -13 -454 -69 -690 -190 -164 -84 -286 -175 -435
-324 -145 -145 -236 -266 -319 -425 -141 -272 -198 -505 -198 -815 0 -189 17
-325 59 -475 199 -720 850 -1251 1576 -1288 362 -19 639 36 927 184 177 91
295 178 445 329 146 146 239 269 319 425 142 276 198 507 198 825 -1 311 -57
543 -198 815 -83 159 -174 280 -319 425 -149 149 -271 240 -435 324 -298 153
-570 209 -930 190z m-121 -406 c-17 -4 -29 -43 -29 -89 0 -20 -5 -24 -27 -23
-17 1 -21 3 -10 6 11 3 17 14 17 34 0 37 27 79 49 78 15 -1 15 -2 0 -6z m28
-70 c-2 -16 -4 -5 -4 22 0 28 2 40 4 28 2 -13 2 -35 0 -50z m532 1 c17 -14 31
-30 31 -35 0 -6 -10 2 -23 16 -12 15 -38 30 -57 35 -31 7 -32 8 -8 9 15 1 40
-10 57 -25z m-109 3 c0 -1 -13 -15 -30 -30 -16 -16 -30 -26 -30 -22 0 3 12 17
26 30 25 23 34 29 34 22z m-562 -87 c63 0 72 -9 72 -61 0 -36 4 -51 16 -56 9
-3 20 0 25 8 5 8 9 9 9 4 0 -18 -23 -35 -47 -35 -21 0 -23 4 -23 55 l0 55 -32
0 c-71 0 -99 25 -65 59 10 10 13 8 15 -8 2 -15 11 -21 30 -21z m205 33 c-7 -2
-19 -2 -25 0 -7 3 -2 5 12 5 14 0 19 -2 13 -5z m435 -29 c2 -21 -3 -36 -20
-50 l-23 -19 18 21 c16 19 16 22 1 34 -20 17 -41 5 -69 -38 -33 -51 -79 -36
-68 22 7 38 20 55 19 24 -2 -37 29 -33 53 7 18 31 25 36 54 33 28 -3 32 -7 35
-34z m-401 -11 c-3 -10 -5 -4 -5 12 0 17 2 24 5 18 2 -7 2 -21 0 -30z m463
-13 c0 -11 -4 -20 -9 -20 -5 0 -7 9 -4 20 3 11 7 20 9 20 2 0 4 -9 4 -20z
m-517 4 c51 -9 47 -24 -7 -24 -26 0 -46 -5 -49 -12 -3 -7 -6 -1 -6 15 -1 29 3
30 62 21z m616 -112 c0 -12 -3 -9 -10 8 -6 14 -18 34 -27 45 -9 12 -5 8 11 -7
15 -16 27 -36 26 -46z m-132 38 c42 0 73 -30 73 -71 l0 -31 -30 31 c-25 28
-33 31 -64 26 -32 -6 -36 -5 -41 18 -8 32 2 54 18 38 6 -6 26 -11 44 -11z
m-221 -25 c9 -13 14 -30 11 -37 -4 -8 -6 -6 -6 5 -1 9 -10 26 -21 37 -11 11
-16 20 -10 20 5 0 17 -11 26 -25z m-6 -65 c0 -14 -24 -31 -102 -69 -142 -68
-144 -68 -162 -32 -13 25 -14 33 -2 55 l13 27 6 -31 c9 -41 23 -39 142 20 55
26 101 49 103 49 1 1 2 -8 2 -19z m-984 -22 l19 -23 -22 19 c-22 19 -23 18
-75 -22 -29 -22 -68 -56 -86 -75 -29 -30 -32 -38 -23 -56 7 -12 14 -21 17 -21
8 0 98 73 144 117 32 29 36 31 37 13 1 -14 -26 -44 -85 -95 -48 -41 -92 -75
-99 -75 -16 0 -31 29 -31 62 1 27 60 92 138 151 43 32 42 32 66 5z m1334 -29
c-24 -87 -110 -136 -184 -105 -32 13 -36 19 -33 46 2 16 7 33 11 38 4 4 6 1 4
-7 -5 -22 48 -44 88 -36 41 7 102 58 110 92 4 13 8 22 11 19 2 -2 -1 -23 -7
-47z m-792 24 c-10 -2 -26 -2 -35 0 -10 3 -2 5 17 5 19 0 27 -2 18 -5z m102
-86 c0 -6 -6 -3 -12 8 -6 11 -18 29 -27 40 -9 12 -4 8 12 -7 15 -16 27 -34 27
-41z m404 57 c5 -14 4 -15 -9 -4 -11 9 -22 9 -46 1 -43 -15 -51 -13 -14 4 40
19 62 18 69 -1z m126 12 c0 -2 -9 -6 -20 -9 -11 -3 -18 -1 -14 4 5 9 34 13 34
5z m37 -12 c-3 -3 -12 -4 -19 -1 -8 3 -5 6 6 6 11 1 17 -2 13 -5z m-288 -28
c-10 -9 -109 -56 -109 -51 0 6 91 54 104 55 5 0 7 -2 5 -4z m133 -24 c-7 -2
-12 -12 -12 -21 0 -13 -33 -34 -119 -75 -66 -31 -122 -56 -125 -56 -3 0 -12
13 -20 29 -14 26 -14 32 0 60 9 17 18 31 20 31 3 0 2 -5 -1 -11 -4 -5 -4 -22
-1 -36 6 -21 11 -24 31 -19 49 12 216 98 222 114 5 13 8 13 11 2 3 -8 0 -16
-6 -18z m-522 8 c25 -13 42 -77 31 -115 l-8 -30 -7 36 c-7 42 -36 72 -63 67
-10 -1 -27 -22 -38 -45 -21 -45 -35 -52 -55 -28 -8 10 -10 27 -5 52 7 34 9 36
14 14 10 -37 28 -36 47 1 31 61 45 69 84 48z m-449 -17 c13 -16 12 -17 -3 -4
-10 7 -18 15 -18 17 0 8 8 3 21 -13z m-51 3 c0 -2 -8 -10 -17 -17 -16 -13 -17
-12 -4 4 13 16 21 21 21 13z m-96 -83 c-32 -32 -61 -56 -64 -54 -5 3 109 111
118 111 3 0 -21 -26 -54 -57z m151 35 c-1 -13 -3 -26 -4 -29 0 -4 -40 -39 -88
-78 -86 -70 -88 -71 -107 -52 -23 24 -15 61 9 41 12 -10 24 -5 67 28 29 22 69
57 87 76 19 20 36 36 37 36 1 0 0 -10 -1 -22z m562 -25 c-3 -10 -5 -2 -5 17 0
19 2 27 5 18 2 -10 2 -26 0 -35z m-456 -65 c17 -35 37 -66 43 -70 8 -6 7 -8
-1 -8 -7 0 -29 32 -48 70 -19 39 -33 70 -30 70 2 0 19 -28 36 -62z m-51 48 c0
-2 -7 -7 -16 -10 -8 -3 -12 -2 -9 4 6 10 25 14 25 6z m-11 -96 c25 -66 25 -66
4 -74 -10 -4 -14 -4 -11 -1 4 4 -2 27 -13 52 -11 25 -17 54 -13 65 7 25 8 24
33 -42z m487 5 c-15 -36 -15 -36 7 -31 12 3 4 -2 -18 -13 -22 -10 -41 -17 -43
-16 -1 1 12 27 30 57 36 60 48 62 24 3z m386 28 c33 -37 20 -70 -54 -136 -93
-83 -112 -94 -132 -78 -16 14 -22 51 -8 51 4 0 13 -5 20 -12 9 -9 16 -8 29 3
103 86 153 134 153 144 0 7 -7 18 -15 25 -12 10 -18 10 -32 -1 -16 -13 -17
-12 -4 4 7 9 17 17 21 17 4 0 14 -8 22 -17z m-267 -23 c3 -6 -1 -7 -9 -4 -18
7 -21 14 -7 14 6 0 13 -4 16 -10z m139 -57 c-38 -38 -71 -66 -74 -64 -5 3 128
131 138 131 2 0 -26 -30 -64 -67z m-574 47 c-8 -5 -19 -10 -25 -10 -5 0 -3 5
5 10 8 5 20 10 25 10 6 0 3 -5 -5 -10z m88 -15 c-3 -3 -9 2 -12 12 -6 14 -5
15 5 6 7 -7 10 -15 7 -18z m117 -35 c-9 -16 -18 -30 -21 -30 -2 0 2 14 11 30
9 17 18 30 21 30 2 0 -2 -13 -11 -30z m-120 -2 c-1 -17 -18 -32 -58 -55 -31
-17 -58 -28 -58 -22 -1 5 -2 14 -3 19 -1 8 94 70 120 80 0 0 0 -10 -1 -22z
m351 -23 c-5 -14 -174 -99 -221 -111 -26 -7 -45 17 -45 59 0 34 11 41 25 14
15 -30 39 -26 149 26 87 42 105 44 92 12z m324 21 c0 -2 -12 -11 -27 -20 l-28
-17 24 20 c23 21 31 25 31 17z m31 -13 c13 -16 12 -17 -3 -4 -17 13 -22 21
-14 21 2 0 10 -8 17 -17z m-1226 -3 c3 -6 -1 -7 -10 -4 -8 4 -27 -1 -43 -10
l-27 -17 24 20 c25 23 46 27 56 11z m46 -81 c16 -34 29 -63 27 -65 -2 -2 -18
26 -36 61 -17 36 -30 65 -27 65 3 0 19 -27 36 -61z m179 56 c0 -2 -10 -9 -22
-15 -22 -11 -22 -10 -4 4 21 17 26 19 26 11z m910 2 c0 -2 -15 -16 -32 -33
l-33 -29 29 33 c28 30 36 37 36 29z m96 -29 c8 -12 -34 -54 -130 -130 -45 -36
-50 -38 -66 -23 -28 25 -23 79 9 107 l26 23 -25 -28 c-19 -22 -22 -32 -14 -45
20 -31 38 -23 109 42 75 69 80 72 91 54z m-1062 -15 c-3 -10 1 -26 8 -36 13
-17 17 -17 79 11 l65 29 33 -63 c35 -67 40 -71 72 -53 14 7 18 16 14 32 -5 17
-4 19 4 7 11 -16 5 -57 -12 -77 -5 -7 -20 -13 -33 -13 -19 0 -30 12 -54 60
-17 33 -32 60 -34 60 -2 0 -28 -11 -58 -25 -62 -29 -84 -31 -92 -9 -8 21 -8
79 1 87 10 11 11 8 7 -10z m-264 -38 c-12 -32 -7 -40 31 -49 20 -4 29 -1 33
11 5 12 23 -17 61 -96 51 -105 57 -113 80 -109 20 4 25 1 25 -14 0 -16 -34
-38 -60 -38 -6 0 -33 47 -61 105 -38 78 -55 103 -63 95 -15 -12 -76 9 -76 25
0 18 32 107 36 102 3 -2 0 -17 -6 -32z m530 -10 c0 -5 -5 -3 -10 5 -5 8 -10
20 -10 25 0 6 5 3 10 -5 5 -8 10 -19 10 -25z m-320 -120 c0 -5 -5 -3 -10 5 -5
8 -10 20 -10 25 0 6 5 3 10 -5 5 -8 10 -19 10 -25z m1208 -97 c7 -7 12 -16 12
-21 0 -5 -7 -1 -16 7 -18 19 -58 20 -103 5 -18 -6 -35 -9 -38 -6 -8 8 56 25
98 26 19 1 40 -4 47 -11z m89 -33 c30 -18 51 -41 68 -75 14 -27 25 -55 25 -62
0 -7 -13 15 -30 50 -16 34 -33 62 -37 62 -12 0 -90 49 -79 50 5 0 29 -11 53
-25z m-280 -22 c-20 -21 -44 -47 -53 -58 -13 -17 -13 -15 1 10 15 27 72 85 84
85 2 0 -12 -17 -32 -37z m180 -11 c-15 -16 -15 -20 -2 -35 14 -15 13 -16 -1
-3 -14 12 -25 11 -82 -10 -60 -21 -97 -46 -129 -84 -7 -8 -13 -12 -13 -8 0 5
16 26 36 47 26 29 53 46 101 62 36 12 72 30 81 40 9 10 18 16 21 14 2 -3 -3
-13 -12 -23z m-1316 -19 c12 -16 12 -17 -2 -5 -13 10 -19 9 -29 -3 -11 -14 -8
-22 23 -53 l37 -38 -37 -34 c-33 -31 -35 -31 -10 -4 l27 31 -21 19 c-34 30
-43 63 -23 85 21 23 19 23 35 2z m129 4 c0 -2 -15 -18 -33 -35 l-33 -32 -25
27 -24 28 26 -22 25 -23 29 30 c27 28 35 34 35 27z m47 -39 c2 -13 -7 -32 -24
-50 l-27 -28 27 -28 c33 -35 36 -78 6 -87 -16 -5 -30 1 -55 26 l-34 33 -39
-38 c-35 -35 -39 -36 -55 -21 -21 21 -20 34 2 29 11 -3 30 8 52 31 l34 35 38
-37 c36 -35 39 -36 55 -20 16 16 15 19 -19 54 l-37 38 35 38 c30 33 34 41 23
55 -11 14 -11 15 1 5 7 -7 15 -23 17 -35z m873 -83 c-10 -33 -19 -53 -19 -44
-1 18 30 112 35 107 2 -2 -5 -31 -16 -63z m350 40 c13 -14 21 -25 18 -25 -2 0
-15 11 -28 25 -13 14 -21 25 -18 25 2 0 15 -11 28 -25z m117 -47 c-3 -8 -6 -5
-6 6 -1 11 2 17 5 13 3 -3 4 -12 1 -19z m-147 -8 c0 -5 -7 -7 -15 -4 -8 4 -15
8 -15 10 0 2 7 4 15 4 8 0 15 -4 15 -10z m-209 -43 c-8 -8 -11 -7 -11 4 0 20
13 34 18 19 3 -7 -1 -17 -7 -23z m366 1 c-3 -7 -5 -2 -5 12 0 14 2 19 5 13 2
-7 2 -19 0 -25z m-197 2 c0 -11 -4 -20 -9 -20 -5 0 -7 9 -4 20 3 11 7 20 9 20
2 0 4 -9 4 -20z m-253 -22 c-3 -8 -6 -5 -6 6 -1 11 2 17 5 13 3 -3 4 -12 1
-19z m370 0 c-3 -8 -6 -5 -6 6 -1 11 2 17 5 13 3 -3 4 -12 1 -19z m-420 -20
c-3 -7 -5 -2 -5 12 0 14 2 19 5 13 2 -7 2 -19 0 -25z m513 -35 c0 -57 -5 -53
-13 10 -4 31 -3 46 3 42 6 -3 10 -27 10 -52z m-63 15 c-3 -7 -5 -2 -5 12 0 14
2 19 5 13 2 -7 2 -19 0 -25z m-377 -125 c7 -11 38 -37 68 -57 61 -40 59 -48
-3 -13 -61 34 -98 94 -101 164 l-3 58 13 -65 c7 -36 18 -75 26 -87z m-83 80
c-3 -10 -5 -4 -5 12 0 17 2 24 5 18 2 -7 2 -21 0 -30z m216 7 c3 -11 1 -18 -4
-14 -5 3 -9 12 -9 20 0 20 7 17 13 -6z m-226 -72 c-3 -7 -5 -2 -5 12 0 14 2
19 5 13 2 -7 2 -19 0 -25z m566 -188 c18 -76 31 -100 55 -100 14 0 22 -3 19
-7 -9 -8 -101 -5 -177 6 -54 8 -53 9 31 10 l87 1 -14 40 c-18 51 -34 161 -33
220 1 30 6 13 15 -55 7 -55 15 -107 17 -115z m-332 182 c-7 -2 -18 1 -23 6 -8
8 -4 9 13 5 13 -4 18 -8 10 -11z m133 -27 c-25 -38 -144 -102 -144 -78 0 5 20
14 44 21 27 7 56 25 77 47 40 42 45 44 23 10z m-380 -45 c-16 -68 -37 -114
-66 -147 -11 -12 -17 -26 -13 -33 3 -6 3 -9 -2 -8 -4 1 -19 -4 -31 -11 -13 -7
-26 -10 -29 -8 -2 3 5 8 16 12 12 3 21 11 21 17 0 6 13 25 29 43 29 33 71 130
71 164 0 15 8 31 16 31 1 0 -4 -27 -12 -60z m132 -150 c-9 -41 -23 -81 -31
-90 -14 -14 -15 -12 -1 21 8 19 21 73 28 120 8 52 14 73 16 53 2 -17 -4 -64
-12 -104z m273 -53 c6 -16 15 -25 21 -22 5 3 10 1 10 -4 0 -14 -27 -14 -32 -1
-2 6 -19 4 -43 -5 -22 -8 -47 -14 -55 -14 -8 0 3 7 25 15 54 20 59 27 47 66
-6 18 -14 56 -17 83 -5 47 -4 46 14 -20 11 -38 24 -83 30 -98z m-1390 109 c-3
-3 -11 5 -18 17 -13 21 -12 21 5 5 10 -10 16 -20 13 -22z m66 -68 c57 -75 92
-111 103 -104 5 3 12 -5 14 -19 3 -15 1 -25 -6 -25 -13 1 -171 200 -158 200 4
0 26 -24 47 -52z m908 -15 c-7 -2 -19 -2 -25 0 -7 3 -2 5 12 5 14 0 19 -2 13
-5z m80 -86 c-5 -64 -2 -83 26 -162 18 -50 46 -144 63 -210 17 -66 34 -128 37
-139 4 -10 17 58 30 155 13 96 27 179 33 186 6 8 25 10 51 7 l42 -6 37 94 c42
104 52 97 13 -9 -13 -37 -22 -69 -20 -71 2 -2 57 -5 122 -7 65 -1 130 -3 145
-4 45 -2 51 -28 38 -148 -10 -97 -10 -106 7 -118 14 -10 17 -24 15 -59 -6 -93
-5 -122 6 -161 6 -22 9 -42 6 -45 -3 -3 -63 -6 -134 -6 -70 -1 -133 -5 -139
-8 -19 -12 -83 15 -141 60 -45 36 -63 44 -97 44 -33 0 -45 -5 -63 -27 l-21
-28 16 33 c11 23 22 32 40 32 29 0 31 15 11 62 -8 18 -24 76 -36 128 -12 52
-37 138 -56 190 -43 123 -54 189 -42 245 5 25 11 45 13 45 2 0 1 -33 -2 -73z
m673 9 c19 -19 34 -42 33 -52 0 -13 -5 -9 -16 13 -10 20 -33 41 -57 53 -33 16
-36 20 -17 20 13 0 38 -15 57 -34z m-460 5 c-8 -12 -67 -20 -101 -13 -24 6
-17 8 35 13 36 3 66 6 68 7 2 1 1 -2 -2 -7z m-1037 -45 c-3 -3 -11 5 -18 17
-13 21 -12 21 5 5 10 -10 16 -20 13 -22z m502 -40 c-14 -36 -22 -33 -9 5 6 16
12 28 14 26 3 -2 0 -16 -5 -31z m-435 -48 l29 -33 -32 29 c-18 17 -33 31 -33
33 0 8 8 1 36 -29z m1499 -38 c10 -67 71 -305 100 -393 36 -111 57 -210 53
-254 -2 -29 -9 -41 -29 -50 -36 -17 -132 -40 -202 -48 -48 -5 -57 -9 -53 -23
3 -9 8 -55 11 -102 3 -47 8 -96 11 -108 3 -17 1 -23 -8 -20 -7 3 -14 22 -16
44 l-3 40 -59 -4 c-90 -7 -107 0 -115 49 -8 47 2 59 50 58 29 -2 29 -2 -5 -8
-32 -5 -35 -9 -31 -36 5 -43 7 -45 59 -44 85 2 97 9 99 59 2 64 -4 88 -25 92
-9 3 19 8 63 12 97 10 226 42 237 59 4 6 8 26 8 43 0 36 -43 207 -66 262 -16
39 -79 291 -88 357 -3 22 -9 51 -12 65 -4 18 -3 21 4 10 5 -8 13 -35 17 -60z
m-1526 16 c-3 -3 -11 5 -18 17 -13 21 -12 21 5 5 10 -10 16 -20 13 -22z m436
-21 c-7 -28 -14 -43 -14 -35 -1 19 19 93 24 88 2 -2 -2 -26 -10 -53z m-542 28
c-7 -2 -21 -2 -30 0 -10 3 -4 5 12 5 17 0 24 -2 18 -5z m72 -11 c-3 -3 -11 0
-18 7 -9 10 -8 11 6 5 10 -3 15 -9 12 -12z m159 -143 c7 -10 16 -16 19 -12 10
10 8 -10 -3 -27 -8 -12 -10 -12 -10 -1 0 8 -13 35 -29 60 -16 25 -32 57 -35
71 -4 14 5 3 19 -24 14 -26 31 -57 39 -67z m-171 69 c-2 -5 -10 -8 -18 -8 -8
0 -16 3 -18 8 -3 4 5 7 18 7 13 0 21 -3 18 -7z m461 -42 c-3 -21 -8 -35 -11
-32 -2 2 -1 20 3 40 3 21 8 35 11 32 2 -2 1 -20 -3 -40z m-476 -31 c13 -4 21
-9 19 -11 -9 -9 -72 23 -92 46 -19 22 -18 22 15 -2 19 -14 45 -29 58 -33z m82
-57 c0 -13 39 -98 45 -98 3 0 16 23 30 50 14 28 28 50 30 50 13 0 -47 -99 -76
-128 -41 -40 -57 -29 -41 26 12 39 8 88 -10 127 -9 20 -9 20 6 1 9 -11 16 -24
16 -28z m377 10 c-3 -7 -5 -2 -5 12 0 14 2 19 5 13 2 -7 2 -19 0 -25z m-146
-110 c39 -57 75 -102 80 -101 5 2 9 -4 9 -12 0 -29 -15 -14 -70 67 -30 44 -65
96 -78 115 -12 18 -20 33 -17 33 2 0 36 -46 76 -102z m136 70 c-3 -8 -6 -5 -6
6 -1 11 2 17 5 13 3 -3 4 -12 1 -19z m-10 -40 c-3 -8 -6 -5 -6 6 -1 11 2 17 5
13 3 -3 4 -12 1 -19z m-14 -58 c-3 -12 -8 -19 -11 -16 -5 6 5 36 12 36 2 0 2
-9 -1 -20z m236 -144 c0 -22 -4 -15 -13 26 -7 32 -15 60 -18 63 -3 3 -20 -30
-37 -73 -35 -87 -125 -224 -171 -260 -36 -28 -55 -23 -94 26 l-30 37 41 -39
41 -38 34 26 c19 14 40 37 48 51 7 14 17 25 22 25 4 0 8 5 8 11 0 6 13 29 30
52 37 53 79 154 87 213 l6 45 23 -67 c13 -37 24 -81 23 -98z m-475 -6 c46 -59
86 -121 69 -105 -21 19 -145 189 -128 175 9 -8 36 -39 59 -70z m777 -27 c-14
-3 -36 -12 -50 -20 l-26 -15 25 21 c14 11 36 20 50 19 l25 -1 -24 -4z m-294
-35 c-3 -7 -5 -2 -5 12 0 14 2 19 5 13 2 -7 2 -19 0 -25z m-18 -120 c-8 -38
-14 -120 -14 -205 0 -96 -3 -135 -9 -120 -17 40 -12 216 9 309 10 48 21 85 24
83 2 -3 -2 -33 -10 -67z m274 46 c-7 -19 -10 -18 -16 5 -3 13 -1 18 9 14 7 -2
10 -11 7 -19z m44 20 c-3 -3 -12 -4 -19 -1 -8 3 -5 6 6 6 11 1 17 -2 13 -5z
m-686 -21 c13 -16 12 -17 -3 -4 -10 7 -18 15 -18 17 0 8 8 3 21 -13z m679 -30
c-8 -3 -21 -12 -27 -21 -12 -14 -13 -14 -13 0 0 17 14 26 40 26 13 0 13 0 0
-5z m97 -59 c-3 -3 -12 -4 -19 -1 -8 3 -5 6 6 6 11 1 17 -2 13 -5z m183 -23
c0 -23 -16 -45 -28 -37 -5 3 -14 19 -20 34 -9 27 -9 28 19 24 19 -3 29 -10 29
-21z m-243 13 c-3 -3 -12 -4 -19 -1 -8 3 -5 6 6 6 11 1 17 -2 13 -5z m-243
-36 c22 -6 45 -14 49 -18 4 -4 5 -30 1 -59 l-7 -51 -75 0 c-90 0 -92 8 -3 12
34 1 64 5 66 8 2 3 6 21 10 41 l7 35 -64 18 c-35 10 -67 20 -73 21 -31 10 55
3 89 -7z m393 -145 c4 -82 3 -113 -6 -113 -7 0 -11 31 -11 98 0 53 -3 115 -5
137 -5 36 -4 37 6 15 6 -14 13 -76 16 -137z m-72 117 c0 -8 -8 -16 -17 -18
-13 -2 -18 3 -18 18 0 15 5 20 18 18 9 -2 17 -10 17 -18z m262 14 c-3 -3 -12
-4 -19 -1 -8 3 -5 6 6 6 11 1 17 -2 13 -5z m71 -51 c-10 -2 -26 -2 -35 0 -10
3 -2 5 17 5 19 0 27 -2 18 -5z m-340 -130 c-4 -22 -22 -20 -26 1 -2 10 3 16
13 16 10 0 15 -7 13 -17z"/>
<path d="M3113 1463 c-8 -3 -13 -25 -13 -59 0 -57 5 -62 56 -48 20 5 21 7 6
60 -15 52 -22 59 -49 47z"/>
</g>
</svg>
