<?xml version="1.0" standalone="no"?>
<!DOCTYPE svg PUBLIC "-//W3C//DTD SVG 20010904//EN"
 "http://www.w3.org/TR/2001/REC-SVG-20010904/DTD/svg10.dtd">
<svg version="1.0" xmlns="http://www.w3.org/2000/svg"
 width="500.000000pt" height="500.000000pt" viewBox="0 0 500.000000 500.000000"
 preserveAspectRatio="xMidYMid meet">

<g transform="translate(0.000000,500.000000) scale(0.100000,-0.100000)"
fill="#000000" stroke="none">
<path d="M2380 4259 c-253 -13 -454 -69 -690 -190 -164 -84 -286 -175 -435
-324 -145 -145 -236 -266 -319 -425 -141 -272 -198 -505 -198 -815 0 -189 17
-325 59 -475 199 -720 850 -1251 1576 -1288 362 -19 639 36 927 184 177 91
295 178 445 329 146 146 239 269 319 425 142 276 198 507 198 825 -1 311 -57
543 -198 815 -83 159 -174 280 -319 425 -149 149 -271 240 -435 324 -298 153
-570 209 -930 190z m1070 -1074 c0 -168 -3 -305 -6 -305 -3 0 -40 30 -81 66
l-76 66 -76 -74 c-324 -316 -727 -550 -1121 -650 -125 -31 -326 -58 -430 -57
l-65 0 121 34 c536 149 1002 458 1323 877 12 16 3 24 -83 79 -53 34 -95 64
-93 65 6 6 562 203 575 203 9 1 12 -66 12 -304z m0 -1125 l0 -560 -160 0 -160
0 0 560 0 560 160 0 160 0 0 -560z m-520 -160 l0 -400 -170 0 -170 0 0 400 0
400 170 0 170 0 0 -400z m-530 -90 l0 -310 -165 0 -165 0 0 310 0 310 165 0
165 0 0 -310z m-520 -40 l0 -270 -165 0 -165 0 0 270 0 270 165 0 165 0 0
-270z"/>
</g>
</svg>
