<?xml version="1.0" standalone="no"?>
<!DOCTYPE svg PUBLIC "-//W3C//DTD SVG 20010904//EN"
 "http://www.w3.org/TR/2001/REC-SVG-20010904/DTD/svg10.dtd">
<svg version="1.0" xmlns="http://www.w3.org/2000/svg"
 width="500.000000pt" height="500.000000pt" viewBox="0 0 500.000000 500.000000"
 preserveAspectRatio="xMidYMid meet">

<g transform="translate(0.000000,500.000000) scale(0.100000,-0.100000)"
fill="#000000" stroke="none">
<path d="M2380 4259 c-253 -13 -454 -69 -690 -190 -164 -84 -286 -175 -435
-324 -145 -145 -236 -266 -319 -425 -141 -272 -198 -505 -198 -815 0 -189 17
-325 59 -475 199 -720 850 -1251 1576 -1288 362 -19 639 36 927 184 177 91
295 178 445 329 146 146 239 269 319 425 142 276 198 507 198 825 -1 311 -57
543 -198 815 -83 159 -174 280 -319 425 -149 149 -271 240 -435 324 -298 153
-570 209 -930 190z m875 -572 c15 -21 19 -105 46 -980 22 -686 22 -688 2 -710
-17 -19 -19 -32 -15 -93 4 -63 2 -74 -17 -93 -12 -12 -32 -21 -45 -21 -63 0
-1385 122 -1417 130 -21 6 -47 22 -58 36 -19 25 -20 42 -21 899 -1 851 0 876
19 913 22 43 60 72 104 81 16 3 335 -28 709 -70 565 -63 683 -79 693 -92z
m-728 -2006 c-7 -53 -50 -145 -90 -195 -55 -67 -55 -68 -5 -61 56 8 78 -10 78
-63 0 -51 -30 -95 -82 -121 -88 -42 -128 -18 -128 80 0 115 72 281 155 358 59
54 79 55 72 2z m-513 -61 c-3 -8 -8 -29 -11 -47 -5 -28 -2 -33 21 -39 14 -3
26 -10 26 -15 0 -13 -54 -11 -73 4 -16 11 -16 15 4 54 26 52 17 74 -17 42
l-24 -22 0 21 c0 13 11 27 28 36 24 13 28 13 40 -2 7 -9 10 -23 6 -32z m700
-19 c10 -16 -10 -54 -53 -103 -23 -25 -41 -49 -41 -52 0 -3 16 -6 35 -6 36 0
47 -13 19 -24 -20 -8 -58 -8 -78 0 -28 11 -18 35 34 85 28 26 50 53 50 58 0 6
-16 11 -35 11 -42 0 -46 14 -7 28 35 13 69 14 76 3z m-893 -30 c26 -21 28 -43
14 -186 -6 -69 -5 -82 9 -94 15 -12 22 -12 52 2 39 19 54 21 54 8 0 -16 -60
-53 -86 -53 -27 0 -74 37 -74 59 0 18 -9 16 -44 -10 -59 -45 -75 -50 -102 -32
-58 37 -14 208 74 288 47 42 69 46 103 18z m359 -37 c0 -3 -7 -33 -16 -66 -8
-33 -12 -63 -9 -67 4 -3 21 -11 38 -18 l32 -11 -28 -1 c-36 -1 -87 -50 -87
-84 0 -32 -9 -57 -22 -57 -5 0 -7 27 -2 69 l6 70 -53 3 c-70 4 -70 22 1 26 62
4 75 12 85 49 11 47 34 93 44 93 6 0 11 -3 11 -6z m1188 -56 c22 -22 13 -51
-29 -90 -23 -22 -40 -41 -38 -43 2 -2 19 -7 38 -12 47 -12 53 -33 9 -33 -37 0
-79 19 -85 37 -3 7 14 32 37 57 45 49 45 66 -1 66 -28 0 -37 9 -22 23 11 12
78 8 91 -5z m-204 -74 c20 -19 21 -64 3 -64 -8 0 -19 11 -25 25 -14 31 -43 32
-88 4 -65 -40 -101 -136 -69 -185 16 -25 20 -26 90 -22 106 7 133 -16 40 -33
-62 -12 -134 3 -157 33 -60 78 46 258 153 258 21 0 45 -7 53 -16z m-240 0 c9
-3 16 -11 16 -17 0 -12 -160 -1 -174 13 -11 11 131 14 158 4z m-34 -114 c0 -6
-35 -10 -86 -10 -54 0 -83 4 -79 10 3 6 42 10 86 10 46 0 79 -4 79 -10z"/>
<path d="M1819 3807 c-69 -46 -69 -46 -69 -488 0 -218 3 -585 7 -817 6 -388 8
-420 23 -412 9 5 40 12 70 16 l53 7 -7 591 c-9 872 -16 1126 -31 1126 -7 0
-27 -10 -46 -23z"/>
<path d="M1985 2968 c4 -469 10 -856 14 -860 6 -7 1170 -98 1250 -98 24 0 41
5 44 14 3 8 -3 272 -13 588 -10 315 -22 680 -26 810 -5 183 -10 240 -21 249
-9 8 -1170 147 -1247 149 -5 0 -5 -364 -1 -852z m257 557 c-6 -48 -15 -92 -21
-98 -8 -8 -11 -4 -11 16 0 23 -4 27 -29 27 -18 0 -34 -8 -44 -22 -29 -44 -31
-6 -3 45 41 74 97 140 108 129 6 -6 6 -42 0 -97z m88 84 c0 -6 -8 -39 -17 -73
-21 -79 -14 -100 27 -91 23 5 30 3 30 -8 0 -13 -28 -27 -57 -27 -20 0 -43 31
-43 59 0 35 39 151 51 151 5 0 9 -5 9 -11z m195 -19 c11 -17 -5 -32 -21 -19
-17 14 -38 -1 -60 -42 -30 -58 -8 -121 31 -89 21 18 18 40 -5 40 -11 0 -20 4
-20 9 0 16 20 23 46 17 17 -5 24 -13 24 -30 0 -31 -37 -76 -62 -76 -69 0 -78
111 -16 178 22 23 72 30 83 12z m153 -19 c3 -10 -4 -12 -36 -6 -43 7 -39 11
-58 -55 -4 -16 -1 -20 20 -20 16 0 26 -6 26 -15 0 -10 -10 -15 -30 -15 -23 0
-30 -4 -30 -20 0 -21 8 -24 49 -20 15 1 22 -3 19 -12 -3 -8 -20 -13 -43 -13
-55 0 -64 32 -35 126 l21 70 46 -3 c28 -2 48 -8 51 -17z m106 -7 c22 -22 20
-64 -5 -91 -18 -18 -20 -25 -9 -38 28 -33 -26 -73 -75 -55 -29 11 -30 25 -12
97 24 93 63 126 101 87z m144 -16 c6 -6 12 -26 12 -46 0 -27 -8 -42 -34 -67
l-35 -32 25 -11 c13 -7 24 -16 24 -22 0 -16 -32 -12 -53 8 -15 12 -21 14 -24
5 -3 -7 -9 -13 -14 -13 -21 0 -1 135 27 178 15 23 42 23 72 0z m153 -77 c-2
-40 -6 -85 -10 -99 -8 -29 -28 -28 -24 1 4 26 -52 23 -71 -5 -13 -18 -16 -19
-21 -6 -10 25 98 192 119 185 7 -3 10 -29 7 -76z m-701 -255 c151 -19 362 -44
468 -57 106 -13 198 -26 204 -30 8 -5 19 -146 34 -430 13 -233 21 -425 19
-427 -6 -6 -1026 82 -1038 90 -9 5 -13 127 -15 448 l-3 440 28 0 c15 0 152
-15 303 -34z"/>
<path d="M2190 3531 c-13 -26 -13 -31 5 -31 9 0 15 9 15 25 0 30 -6 32 -20 6z"/>
<path d="M2724 3515 c-17 -42 -17 -45 -1 -45 20 0 47 33 47 58 0 34 -29 26
-46 -13z"/>
<path d="M2700 3415 c0 -11 7 -15 23 -13 12 2 22 8 22 13 0 6 -10 11 -22 13
-16 2 -23 -2 -23 -13z"/>
<path d="M2862 3493 c-6 -26 -9 -50 -7 -52 3 -2 16 4 30 13 21 14 26 24 23 49
-2 20 -9 33 -20 35 -12 2 -19 -9 -26 -45z"/>
<path d="M3027 3450 c-16 -22 -16 -25 -1 -28 21 -5 26 2 22 30 l-3 23 -18 -25z"/>
<path d="M2070 3025 c0 -156 3 -207 13 -210 11 -3 450 -45 479 -45 8 0 10 51
5 196 -3 108 -8 198 -11 201 -3 3 -410 56 -483 63 -2 0 -3 -92 -3 -205z m175
40 l47 -55 53 45 c49 42 75 55 75 37 0 -4 -25 -27 -55 -51 -30 -24 -55 -46
-55 -48 0 -3 21 -29 46 -59 61 -71 47 -85 -15 -16 -26 28 -51 52 -55 52 -4 0
-29 -18 -55 -40 -70 -59 -86 -48 -18 13 l59 53 -46 55 c-25 31 -46 59 -46 63
0 18 23 1 65 -49z"/>
<path d="M2590 2968 c0 -197 0 -198 23 -202 25 -5 390 -36 425 -36 l23 0 -7
143 c-4 78 -10 164 -13 192 l-6 50 -222 25 -223 26 0 -198z m259 -18 c75 -10
89 -15 78 -26 -8 -9 -210 16 -221 27 -13 12 47 11 143 -1z"/>
<path d="M2080 2783 c-5 -96 3 -399 10 -403 14 -9 480 -44 487 -37 3 3 2 95
-2 205 l-7 199 -207 17 c-113 9 -223 19 -243 22 -21 3 -38 2 -38 -3z m300
-208 c31 -79 46 -133 41 -138 -9 -9 -27 24 -45 81 -7 22 -16 25 -87 37 -36 5
-37 4 -65 -50 -27 -51 -44 -69 -44 -45 0 29 131 263 141 253 5 -5 32 -67 59
-138z"/>
<path d="M2291 2632 c-12 -24 -21 -45 -19 -47 2 -2 20 -6 41 -10 43 -8 46 -1
18 60 l-18 40 -22 -43z"/>
<path d="M2598 2543 c2 -109 7 -201 10 -204 4 -4 112 -15 240 -26 l232 -19 -1
66 c0 112 -16 330 -23 337 -7 7 -354 42 -426 43 l-35 0 3 -197z m256 62 l-7
-75 45 0 c60 0 108 -10 108 -22 0 -6 -30 -9 -74 -6 l-74 3 -7 -72 c-9 -96 -28
-96 -23 0 l3 72 -72 9 c-99 12 -96 31 2 23 l75 -7 0 68 c0 38 3 72 7 75 18 19
23 0 17 -68z"/>
<path d="M1804 2066 c-34 -15 -51 -44 -31 -51 21 -8 1387 -104 1402 -99 13 5
32 61 23 69 -2 2 -100 11 -218 19 -222 17 -648 49 -875 66 -174 13 -264 12
-301 -4z"/>
<path d="M2453 1648 c-26 -29 -89 -136 -98 -165 -12 -43 24 -25 59 30 40 62
76 132 76 147 0 17 -15 12 -37 -12z"/>
<path d="M2355 1376 c-39 -39 -28 -116 17 -116 33 0 84 37 99 71 17 43 3 63
-49 67 -34 3 -47 -2 -67 -22z"/>
<path d="M1735 1526 c-62 -66 -108 -206 -74 -227 24 -15 38 -10 81 29 50 45
77 102 78 163 0 76 -33 90 -85 35z"/>
</g>
</svg>
