<?xml version="1.0" standalone="no"?>
<!DOCTYPE svg PUBLIC "-//W3C//DTD SVG 20010904//EN"
 "http://www.w3.org/TR/2001/REC-SVG-20010904/DTD/svg10.dtd">
<svg version="1.0" xmlns="http://www.w3.org/2000/svg"
 width="500.000000pt" height="500.000000pt" viewBox="0 0 500.000000 500.000000"
 preserveAspectRatio="xMidYMid meet">

<g transform="translate(0.000000,500.000000) scale(0.100000,-0.100000)"
fill="#000000" stroke="none">
<path d="M2380 4259 c-253 -13 -454 -69 -690 -190 -164 -84 -286 -175 -435
-324 -145 -145 -236 -266 -319 -425 -141 -272 -198 -505 -198 -815 0 -189 17
-325 59 -475 199 -720 850 -1251 1576 -1288 362 -19 639 36 927 184 177 91
295 178 445 329 146 146 239 269 319 425 142 276 198 507 198 825 -1 311 -57
543 -198 815 -83 159 -174 280 -319 425 -149 149 -271 240 -435 324 -298 153
-570 209 -930 190z m705 -623 c49 -17 95 -58 154 -136 28 -37 43 -108 41 -193
-1 -32 3 -64 9 -71 9 -11 5 -38 -14 -103 -5 -14 0 -28 14 -42 17 -17 25 -18
53 -10 18 5 34 9 35 9 1 0 0 -6 -3 -14 -3 -7 2 -16 10 -19 9 -4 16 -12 16 -20
0 -7 34 -40 76 -73 139 -108 171 -147 219 -267 33 -83 65 -254 65 -353 0 -79
-30 -343 -51 -443 -10 -51 -19 -115 -19 -141 0 -26 -9 -94 -21 -151 -23 -114
-42 -162 -37 -91 4 43 -10 58 -19 22 -3 -11 -10 -20 -15 -20 -6 0 -7 7 -4 16
3 9 9 28 12 42 8 31 2 27 -46 -38 -51 -68 -79 -91 -105 -84 -22 5 -40 -11 -71
-62 -6 -10 -24 -18 -45 -20 -19 -1 -34 -3 -34 -4 0 -1 -13 -4 -29 -6 l-28 -5
22 31 c23 32 21 36 -12 19 -19 -10 -20 -9 -13 7 22 54 19 55 -59 13 -45 -24
-75 -35 -74 -27 2 7 7 16 13 20 5 4 6 10 2 14 -4 4 -13 2 -19 -4 -18 -18 -32
-14 -17 4 10 12 0 10 -34 -7 -25 -13 -49 -32 -53 -42 -7 -22 -52 -52 -62 -42
-4 4 -1 10 6 12 6 3 9 10 5 16 -8 12 -9 18 -11 51 -2 20 -2 20 -18 0 -15 -18
-15 -18 -10 9 3 15 9 39 13 55 6 24 5 26 -10 13 -15 -12 -17 -11 -17 5 0 11
11 42 24 70 l24 51 -59 6 c-37 3 -76 0 -106 -9 -25 -8 -75 -14 -110 -14 -52 0
-65 3 -75 20 -7 11 -16 20 -20 20 -4 0 -24 11 -44 25 -20 14 -50 25 -65 25
-16 0 -29 4 -29 9 0 27 -34 41 -91 40 -41 -1 -65 3 -77 13 -26 23 -78 48 -102
48 -11 0 -20 7 -20 15 0 9 -23 45 -51 81 -35 44 -48 69 -42 75 7 7 22 -4 47
-32 20 -23 36 -38 36 -33 0 5 -23 33 -51 62 -28 29 -49 56 -46 58 7 8 79 -66
94 -96 7 -14 17 -38 23 -53 10 -27 10 -27 41 -12 16 9 36 14 42 12 7 -3 1 -9
-12 -14 l-23 -9 28 -19 c16 -10 35 -27 44 -37 13 -15 32 -18 130 -19 121 -1
190 11 117 21 -21 3 -38 10 -39 15 0 6 28 24 63 42 57 28 70 31 124 26 33 -3
69 -13 80 -22 78 -64 83 -65 159 -49 52 10 70 18 67 29 -5 19 -4 27 4 77 l8
43 -27 -11 c-20 -7 -34 -6 -55 5 -16 8 -30 12 -33 10 -2 -3 -35 -5 -72 -6 -63
-2 -70 1 -90 25 -17 21 -32 28 -76 32 l-55 6 36 -25 c20 -15 39 -34 43 -43 5
-13 3 -14 -6 -6 -10 8 -162 8 -237 0 -3 0 -15 0 -26 2 l-20 1 20 9 c15 6 16 9
4 9 -8 1 -26 12 -39 26 -29 31 -41 31 -60 1 -14 -23 -15 -19 -14 57 1 45 2 96
3 112 1 26 10 37 55 65 48 32 57 44 96 128 23 50 47 92 52 92 20 0 20 -35 1
-74 -30 -59 -54 -118 -51 -121 2 -1 38 -21 81 -44 68 -35 87 -41 142 -41 34 0
82 7 106 15 24 9 53 15 64 13 28 -4 85 22 85 38 0 8 7 14 15 14 22 0 38 45 75
200 17 74 36 152 41 173 8 29 7 45 -5 69 -21 40 -20 47 5 74 l21 23 -22 30
c-26 37 -34 38 -72 6 -42 -35 -93 -34 -112 3 -17 32 -51 62 -70 62 -8 0 -17
12 -20 26 -6 21 -11 25 -31 20 -31 -8 -36 1 -41 86 -4 60 -8 73 -29 89 -13 11
-26 32 -30 48 -5 23 -10 28 -26 24 -15 -4 -22 0 -26 15 -3 11 -11 18 -17 16
-24 -9 -39 23 -27 57 6 18 11 44 11 58 0 20 2 23 10 11 5 -8 10 -12 10 -8 0 3
3 14 7 24 5 13 3 15 -7 9 -8 -5 -2 7 13 27 15 19 27 40 27 47 0 6 25 38 56 70
113 119 273 165 409 117z m-1150 -46 c-3 -5 -12 -10 -18 -10 -7 0 -6 4 3 10
19 12 23 12 15 0z m-80 -30 c-11 -5 -27 -9 -35 -9 -9 0 -8 4 5 9 11 5 27 9 35
9 9 0 8 -4 -5 -9z m-145 -40 c-8 -5 -19 -10 -25 -10 -5 0 -3 5 5 10 8 5 20 10
25 10 6 0 3 -5 -5 -10z m423 -77 c76 -125 110 -183 104 -183 -2 0 -35 51 -73
113 -37 61 -74 122 -82 135 -8 12 -12 22 -9 22 3 0 30 -39 60 -87z m22 37 c3
-6 -1 -7 -9 -4 -18 7 -21 14 -7 14 6 0 13 -4 16 -10z m-585 -34 c0 -2 -8 -10
-17 -17 -16 -13 -17 -12 -4 4 13 16 21 21 21 13z m-137 -123 c-7 -2 -19 -2
-25 0 -7 3 -2 5 12 5 14 0 19 -2 13 -5z m-56 -9 c-3 -3 -12 -4 -19 -1 -8 3 -5
6 6 6 11 1 17 -2 13 -5z m883 -84 c6 -11 8 -20 6 -20 -3 0 -10 9 -16 20 -6 11
-8 20 -6 20 3 0 10 -9 16 -20z m60 -10 c6 -11 8 -20 6 -20 -3 0 -10 9 -16 20
-6 11 -8 20 -6 20 3 0 10 -9 16 -20z m-311 -14 c-10 -9 -89 -46 -89 -41 0 6
72 44 84 45 5 0 7 -2 5 -4z m-829 -9 c0 -2 -12 -14 -27 -28 l-28 -24 24 28
c23 25 31 32 31 24z m1119 -33 c12 -20 20 -39 17 -41 -2 -3 -14 13 -26 36 -25
51 -20 54 9 5z m-19 -14 c6 -11 8 -20 6 -20 -3 0 -10 9 -16 20 -6 11 -8 20 -6
20 3 0 10 -9 16 -20z m100 -40 c11 -22 18 -40 15 -40 -2 0 -14 18 -25 40 -11
22 -18 40 -15 40 2 0 14 -18 25 -40z m-1290 6 c0 -2 -8 -10 -17 -17 -16 -13
-17 -12 -4 4 13 16 21 21 21 13z m1033 -3 c-7 -2 -19 -2 -25 0 -7 3 -2 5 12 5
14 0 19 -2 13 -5z m136 -68 c0 -5 -6 1 -14 15 -8 14 -14 30 -14 35 0 6 6 -1
14 -15 8 -14 14 -29 14 -35z m61 35 c6 -11 8 -20 6 -20 -3 0 -10 9 -16 20 -6
11 -8 20 -6 20 3 0 10 -9 16 -20z m-131 7 c-2 -1 -13 -9 -24 -17 -19 -14 -19
-14 -6 3 7 9 18 17 24 17 6 0 8 -1 6 -3z m164 -17 c3 -11 3 -20 1 -20 -2 0 -8
9 -14 20 -6 11 -7 20 -2 20 6 0 12 -9 15 -20z m-1106 -32 c-3 -8 -6 -5 -6 6
-1 11 2 17 5 13 3 -3 4 -12 1 -19z m790 0 c-3 -8 -6 -5 -6 6 -1 11 2 17 5 13
3 -3 4 -12 1 -19z m80 -3 c0 -8 -4 -12 -9 -9 -4 3 -8 9 -8 15 0 5 4 9 8 9 5 0
9 -7 9 -15z m279 -37 c8 -16 13 -32 10 -35 -2 -3 -14 14 -26 37 -12 23 -17 39
-11 35 6 -3 18 -20 27 -37z m-459 -40 c-2 -13 -4 -3 -4 22 0 25 2 35 4 23 2
-13 2 -33 0 -45z m167 22 c22 0 27 4 22 16 -5 14 -4 15 9 4 12 -10 18 -10 33
1 14 11 13 10 -2 -9 -26 -30 -86 -30 -112 1 -19 22 -19 22 2 5 11 -10 33 -18
48 -18z m-1034 0 c6 -11 8 -20 6 -20 -3 0 -10 9 -16 20 -6 11 -8 20 -6 20 3 0
10 -9 16 -20z m735 -30 c3 -5 1 -10 -4 -10 -6 0 -11 5 -11 10 0 6 2 10 4 10 3
0 8 -4 11 -10z m395 -35 c-14 -8 -29 -14 -35 -14 -5 0 1 6 15 14 14 8 30 14
35 14 6 0 -1 -6 -15 -14z m-819 -28 c-10 -9 -11 -8 -5 6 3 10 9 15 12 12 3 -3
0 -11 -7 -18z m949 13 c-8 -5 -19 -10 -25 -10 -5 0 -3 5 5 10 8 5 20 10 25 10
6 0 3 -5 -5 -10z m-40 -17 c-1 -5 -40 -26 -87 -48 -48 -22 -130 -64 -182 -92
-98 -55 -124 -66 -81 -36 31 22 332 182 343 183 4 0 7 -3 7 -7z m-533 -22 c0
-11 -5 -18 -9 -15 -4 3 -5 11 -1 19 7 21 12 19 10 -4z m-750 -6 c0 -8 -4 -12
-9 -9 -5 3 -6 10 -3 15 9 13 12 11 12 -6z m133 -5 c6 -11 8 -20 6 -20 -3 0
-10 9 -16 20 -6 11 -8 20 -6 20 3 0 10 -9 16 -20z m1115 -48 c-3 -3 -11 0 -18
7 -9 10 -8 11 6 5 10 -3 15 -9 12 -12z m-695 -6 c0 -2 -12 -11 -27 -20 l-28
-17 24 20 c23 21 31 25 31 17z m625 -16 c3 -6 -1 -7 -9 -4 -18 7 -21 14 -7 14
6 0 13 -4 16 -10z m-685 -24 c0 -2 -8 -10 -17 -17 -16 -13 -17 -12 -4 4 13 16
21 21 21 13z m595 -16 c3 -6 -1 -7 -9 -4 -18 7 -21 14 -7 14 6 0 13 -4 16 -10z
m-645 -23 c0 -2 -10 -12 -22 -23 l-23 -19 19 23 c18 21 26 27 26 19z m-340
-33 c0 -8 -19 -13 -24 -6 -3 5 1 9 9 9 8 0 15 -2 15 -3z m733 -24 c3 -10 -1
-24 -8 -30 -9 -8 -12 -5 -10 12 5 46 9 50 18 18z m-587 -2 c4 -7 4 -10 -1 -6
-4 4 -15 2 -24 -5 -14 -11 -14 -10 -2 6 16 20 18 21 27 5z m-116 -24 c0 -8
-19 -13 -24 -6 -3 5 1 9 9 9 8 0 15 -2 15 -3z m130 2 c0 -2 -8 -10 -17 -17
-16 -13 -17 -12 -4 4 13 16 21 21 21 13z m540 -6 c0 -5 -7 -7 -15 -4 -8 4 -15
1 -15 -7 0 -7 -3 -10 -6 -6 -3 3 -24 -5 -45 -19 -21 -13 -39 -21 -39 -17 0 5
-5 1 -11 -7 -8 -11 -10 -12 -7 -1 4 15 102 71 124 71 8 0 14 -4 14 -10z m-526
-18 c3 -5 -1 -9 -9 -9 -8 0 -12 4 -9 9 3 4 7 8 9 8 2 0 6 -4 9 -8z m-108 -34
c3 -4 -1 -5 -10 -4 -8 1 -18 5 -22 8 -3 4 1 5 10 4 8 -1 18 -5 22 -8z m129 -1
c3 -4 2 -5 -2 -2 -3 3 -13 -1 -21 -8 -11 -8 -14 -8 -9 0 4 6 1 14 -5 17 -7 2
-3 4 9 2 12 -1 25 -5 28 -9z m285 -1 c0 -2 -8 -10 -17 -17 -16 -13 -17 -12 -4
4 13 16 21 21 21 13z m-256 -44 c3 -5 -1 -9 -9 -9 -8 0 -12 4 -9 9 3 4 7 8 9
8 2 0 6 -4 9 -8z m206 4 c0 -2 -8 -10 -17 -17 -16 -13 -17 -12 -4 4 13 16 21
21 21 13z m-190 -30 c0 -2 -8 -10 -17 -17 -16 -13 -17 -12 -4 4 13 16 21 21
21 13z m-45 -78 c19 -29 35 -57 35 -63 0 -9 -18 16 -65 88 -32 50 -6 28 30
-25z m-25 -34 c0 -8 -19 -13 -24 -6 -3 5 1 9 9 9 8 0 15 -2 15 -3z m774 -405
c-4 -6 -11 -6 -20 2 -21 17 -17 31 6 19 11 -6 18 -15 14 -21z m-796 -81 c14
-14 16 -62 2 -53 -5 3 -20 -1 -32 -9 -22 -14 -48 -20 -75 -17 -19 2 -16 51 4
73 19 21 82 25 101 6z m1029 -24 c-3 -3 -12 -4 -19 -1 -8 3 -5 6 6 6 11 1 17
-2 13 -5z m-767 -34 c0 -12 -12 -26 -31 -36 -25 -12 -29 -18 -18 -25 17 -11 2
-11 -26 0 -18 7 -15 11 23 30 49 25 56 45 13 39 -17 -2 -28 -1 -25 4 3 4 18 8
35 8 22 0 29 -5 29 -20z m-169 -39 c11 5 25 9 31 7 6 -2 -3 -10 -20 -17 -27
-11 -32 -19 -33 -50 l-1 -36 -11 28 c-7 18 -16 26 -26 22 -12 -5 -11 -2 2 13
9 10 20 34 24 53 l8 34 3 -33 c3 -29 5 -31 23 -21z m212 -146 c-3 -9 2 -22 13
-30 18 -13 18 -14 -3 -9 -16 5 -25 -1 -38 -23 l-16 -28 6 32 c5 24 2 34 -12
42 -15 10 -14 10 8 5 19 -4 28 -1 32 10 4 9 9 16 11 16 3 0 3 -7 -1 -15z m152
-65 c-20 -39 -19 -41 10 -34 28 7 55 -10 55 -34 0 -21 -29 -52 -49 -52 -10 0
-7 5 9 13 29 15 33 45 7 61 -16 9 -24 5 -53 -29 -18 -22 -34 -34 -34 -27 0 15
58 132 65 132 3 0 -1 -13 -10 -30z m138 -117 l32 6 -32 -15 c-22 -9 -33 -21
-34 -37 -1 -18 -2 -19 -6 -3 -4 14 -11 17 -36 13 l-32 -6 33 16 c23 12 32 24
33 42 2 25 2 25 6 2 4 -20 9 -22 36 -18z m155 -79 c-10 -21 -9 -27 3 -35 11
-7 10 -9 -7 -9 -12 0 -26 -11 -34 -25 -18 -33 -24 -25 -8 10 11 24 10 29 -7
42 -19 15 -19 15 3 8 18 -5 27 -2 38 14 21 29 26 26 12 -5z m141 -95 c-25 -9
-49 -45 -49 -74 0 -7 7 -21 16 -29 8 -9 12 -16 7 -16 -19 0 -33 25 -33 57 0
39 30 73 63 72 21 -1 20 -1 -4 -10z m162 -119 l24 -21 -35 17 c-43 21 -47 24
-28 24 9 0 26 -9 39 -20z m-15 -41 c3 -5 2 -9 -1 -9 -9 0 -65 30 -65 35 0 7
60 -16 66 -26z m204 -31 c0 -79 -49 -125 -106 -99 -27 12 -47 54 -39 81 3 9
17 28 32 41 l27 24 -28 -34 c-15 -19 -25 -40 -22 -48 4 -8 6 -19 6 -24 0 -17
49 -41 70 -34 41 13 67 112 38 145 -11 12 -10 12 5 1 11 -9 17 -27 17 -53z"/>
<path d="M2567 3263 c-4 -3 -7 -13 -7 -22 1 -13 3 -13 11 2 11 19 8 33 -4 20z"/>
<path d="M2376 2165 c-9 -26 -7 -32 5 -12 6 10 9 21 6 23 -2 3 -7 -2 -11 -11z"/>
<path d="M2410 2030 c0 -5 24 -10 53 -9 38 0 47 3 32 9 -28 12 -85 12 -85 0z"/>
<path d="M3459 1540 c-13 -10 -19 -19 -13 -20 6 0 19 9 29 20 23 26 14 26 -16
0z"/>
<path d="M1168 1899 c-10 -5 -18 -21 -18 -34 0 -19 5 -25 23 -25 29 0 90 37
84 53 -5 15 -67 20 -89 6z"/>
</g>
</svg>
