<?xml version="1.0" standalone="no"?>
<!DOCTYPE svg PUBLIC "-//W3C//DTD SVG 20010904//EN"
 "http://www.w3.org/TR/2001/REC-SVG-20010904/DTD/svg10.dtd">
<svg version="1.0" xmlns="http://www.w3.org/2000/svg"
 width="500.000000pt" height="500.000000pt" viewBox="0 0 500.000000 500.000000"
 preserveAspectRatio="xMidYMid meet">

<g transform="translate(0.000000,500.000000) scale(0.100000,-0.100000)"
fill="#000000" stroke="none">
<path d="M2380 4259 c-253 -13 -454 -69 -690 -190 -164 -84 -286 -175 -435
-324 -145 -145 -236 -266 -319 -425 -141 -272 -198 -505 -198 -815 0 -189 17
-325 59 -475 199 -720 850 -1251 1576 -1288 362 -19 639 36 927 184 177 91
295 178 445 329 146 146 239 269 319 425 142 276 198 507 198 825 -1 311 -57
543 -198 815 -83 159 -174 280 -319 425 -149 149 -271 240 -435 324 -298 153
-570 209 -930 190z m982 -657 c9 -4 75 -74 147 -157 98 -112 131 -157 131
-177 0 -34 -24 -48 -84 -48 l-46 0 -2 -306 c-3 -274 -5 -308 -20 -317 -12 -8
-21 -7 -32 2 -14 12 -16 54 -16 342 0 251 3 330 13 336 6 4 31 10 55 13 l43 5
-92 105 c-50 58 -97 111 -103 118 -11 11 -32 -8 -114 -102 -56 -63 -102 -117
-102 -120 0 -3 17 -6 38 -6 64 0 63 5 60 -231 l-3 -214 -25 0 -25 0 -3 188 -2
187 -55 0 c-47 0 -57 3 -70 24 -13 20 -14 29 -5 47 14 25 218 262 256 297 27
24 30 24 56 14z m-414 -334 c100 -108 162 -184 162 -200 0 -21 -37 -48 -67
-48 l-23 0 -2 -206 c-3 -180 -5 -208 -20 -217 -12 -8 -21 -7 -32 2 -14 12 -16
46 -16 241 0 235 1 243 42 251 14 3 5 18 -40 72 l-57 68 -57 -63 c-31 -35 -57
-66 -58 -70 0 -5 9 -8 20 -8 33 0 42 -43 38 -182 -3 -135 -12 -163 -46 -142
-14 9 -17 30 -20 131 l-3 119 -42 10 c-35 7 -43 13 -45 36 -2 20 13 45 73 115
89 102 121 133 140 133 8 0 32 -19 53 -42z m-944 -334 c135 -154 152 -184 124
-212 -7 -7 -36 -12 -65 -12 l-53 0 0 -299 c0 -165 -3 -306 -6 -315 -8 -21 -50
-21 -58 0 -9 23 -7 647 2 661 4 6 29 13 56 15 l49 3 -102 118 c-56 64 -106
117 -110 117 -8 0 -194 -214 -199 -230 -2 -5 18 -10 45 -12 l48 -3 0 -215 0
-215 -25 0 -25 0 -5 185 -5 185 -58 3 c-49 3 -59 6 -68 26 -8 17 -8 29 0 45
13 23 234 279 259 299 38 29 57 15 196 -144z m626 -250 c101 -45 168 -135 189
-251 43 -234 -187 -443 -415 -379 -252 72 -337 383 -155 565 101 101 246 126
381 65z m644 -90 c30 -12 196 -211 196 -236 0 -33 -18 -48 -57 -48 l-32 0 -3
-127 -3 -128 -25 0 -25 0 0 160 0 160 28 3 28 3 -61 69 -62 69 -58 -67 c-49
-55 -56 -68 -40 -70 38 -6 40 -22 38 -257 -3 -207 -5 -229 -21 -239 -15 -9
-21 -7 -33 8 -11 16 -14 61 -14 218 l0 198 -29 0 c-31 0 -61 22 -61 46 0 15
172 218 198 234 21 12 17 11 36 4z m-1585 -356 c63 -70 101 -121 101 -135 0
-25 -26 -43 -64 -43 l-25 0 -3 -121 c-3 -101 -6 -124 -20 -132 -12 -8 -21 -7
-32 2 -13 11 -16 37 -16 150 0 75 4 141 8 148 4 7 18 16 30 20 21 8 20 11 -31
70 -28 34 -56 62 -62 62 -5 0 -34 -28 -62 -62 -51 -59 -52 -62 -31 -70 12 -4
26 -13 30 -20 4 -7 8 -112 8 -233 0 -190 -2 -223 -16 -235 -11 -9 -20 -10 -32
-2 -15 9 -17 37 -20 217 l-2 206 -26 0 c-37 0 -64 18 -64 42 0 30 189 248 216
248 7 0 58 -51 113 -112z m928 -263 c196 -37 375 -172 465 -352 47 -94 76
-189 65 -217 -6 -14 -72 -16 -654 -16 -356 0 -654 4 -661 9 -11 6 -10 20 3 76
45 197 207 384 399 462 124 51 249 63 383 38z"/>
</g>
</svg>
