<?xml version="1.0" standalone="no"?>
<!DOCTYPE svg PUBLIC "-//W3C//DTD SVG 20010904//EN"
 "http://www.w3.org/TR/2001/REC-SVG-20010904/DTD/svg10.dtd">
<svg version="1.0" xmlns="http://www.w3.org/2000/svg"
 width="500.000000pt" height="500.000000pt" viewBox="0 0 500.000000 500.000000"
 preserveAspectRatio="xMidYMid meet">

<g transform="translate(0.000000,500.000000) scale(0.100000,-0.100000)"
fill="#000000" stroke="none">
<path d="M2380 4259 c-253 -13 -454 -69 -690 -190 -164 -84 -286 -175 -435
-324 -145 -145 -236 -266 -319 -425 -141 -272 -198 -505 -198 -815 0 -189 17
-325 59 -475 199 -720 850 -1251 1576 -1288 362 -19 639 36 927 184 177 91
295 178 445 329 146 146 239 269 319 425 142 276 198 507 198 825 -1 311 -57
543 -198 815 -83 159 -174 280 -319 425 -149 149 -271 240 -435 324 -298 153
-570 209 -930 190z m737 -951 l173 -173 0 -452 c0 -295 -3 -453 -10 -453 -7 0
-10 153 -10 440 l0 440 -565 0 -565 0 0 -86 c0 -64 -3 -85 -12 -82 -9 3 -14
34 -16 94 l-3 90 -154 154 -155 155 0 -253 c0 -161 -4 -252 -10 -252 -6 0 -10
98 -10 275 l0 275 582 0 583 0 172 -172z m-167 -278 c0 -11 -4 -20 -10 -20 -5
0 -10 9 -10 20 0 11 5 20 10 20 6 0 10 -9 10 -20z m-206 -76 c9 -8 16 -31 16
-49 0 -19 5 -37 10 -40 6 -3 10 -32 10 -64 0 -39 5 -63 14 -71 26 -21 39 -77
27 -112 -10 -29 -2 -57 90 -311 73 -201 98 -282 91 -289 -8 -8 -13 -7 -16 3
-176 482 -196 534 -208 530 -7 -2 -30 -6 -50 -9 -21 -2 -38 -9 -38 -16 1 -6
48 -139 104 -296 93 -255 115 -334 82 -288 -6 8 -45 108 -85 221 -41 114 -77
204 -80 201 -3 -2 -53 -138 -112 -300 -60 -163 -115 -307 -124 -320 -8 -13
-33 -33 -54 -43 -23 -12 -64 -52 -101 -98 -58 -74 -89 -97 -82 -63 2 8 86 244
187 524 175 481 185 512 179 561 -6 52 14 115 36 115 6 0 10 27 10 59 0 33 5
63 10 66 6 3 10 23 10 44 0 57 39 81 74 45z m206 -24 c0 -11 -4 -20 -10 -20
-5 0 -10 9 -10 20 0 11 5 20 10 20 6 0 10 -9 10 -20z m-690 -59 c104 -27 177
-66 202 -106 16 -27 18 -55 18 -257 0 -196 -2 -228 -15 -228 -13 0 -15 27 -15
186 l0 185 -28 -20 c-81 -57 -240 -91 -432 -91 -174 0 -285 20 -382 69 l-78
39 0 -467 c1 -351 4 -470 13 -481 26 -33 77 -60 163 -87 84 -25 100 -27 291
-27 131 -1 202 -5 200 -11 -9 -26 -245 -32 -387 -10 -130 19 -210 49 -262 95
l-43 38 0 523 c0 508 1 525 20 551 29 40 101 75 196 97 123 29 130 30 299 26
121 -2 174 -7 240 -24z m690 -41 c0 -11 -4 -20 -10 -20 -5 0 -10 9 -10 20 0
11 5 20 10 20 6 0 10 -9 10 -20z m0 -100 c0 -11 -4 -20 -10 -20 -5 0 -10 9
-10 20 0 11 5 20 10 20 6 0 10 -9 10 -20z m0 -105 c0 -14 -4 -25 -10 -25 -5 0
-10 11 -10 25 0 14 5 25 10 25 6 0 10 -11 10 -25z m0 -105 c0 -11 -4 -20 -10
-20 -5 0 -10 9 -10 20 0 11 5 20 10 20 6 0 10 -9 10 -20z m-940 -30 c0 -11 -7
-20 -15 -20 -8 0 -15 9 -15 20 0 11 7 20 15 20 8 0 15 -9 15 -20z m940 -70 c0
-11 -4 -20 -10 -20 -5 0 -10 9 -10 20 0 11 5 20 10 20 6 0 10 -9 10 -20z
m-940 -30 c0 -11 -7 -20 -15 -20 -8 0 -15 9 -15 20 0 11 7 20 15 20 8 0 15 -9
15 -20z m953 -75 c22 -31 14 -50 -13 -32 -11 6 -20 22 -20 34 0 29 10 29 33
-2z m532 -395 l0 -395 -538 -3 c-372 -1 -538 1 -535 8 6 18 1042 789 1058 787
13 -2 15 -54 15 -397z m-1485 365 c0 -16 -6 -25 -15 -25 -9 0 -15 9 -15 25 0
16 6 25 15 25 9 0 15 -9 15 -25z m1024 -51 c16 -6 23 -34 8 -34 -10 0 -32 22
-32 32 0 10 3 10 24 2z m-1024 -49 c0 -16 -6 -25 -15 -25 -9 0 -15 9 -15 25 0
16 6 25 15 25 9 0 15 -9 15 -25z m1107 -51 c-9 -10 -38 16 -31 28 4 6 13 4 22
-6 9 -8 13 -19 9 -22z m-1107 -54 c0 -11 -7 -20 -15 -20 -8 0 -15 9 -15 20 0
11 7 20 15 20 8 0 15 -9 15 -20z m0 -100 c0 -11 -7 -20 -15 -20 -8 0 -15 9
-15 20 0 11 7 20 15 20 8 0 15 -9 15 -20z m810 -10 c0 -6 -42 -10 -105 -10
-63 0 -105 4 -105 10 0 6 42 10 105 10 63 0 105 -4 105 -10z m-800 -57 c0 -5
-3 -18 -6 -30 -7 -26 -34 -32 -34 -8 0 8 -4 15 -10 15 -5 0 -10 7 -10 15 0 10
10 15 30 15 17 0 30 -3 30 -7z m-132 -15 c-7 -20 -58 -23 -58 -4 0 11 10 16
31 16 20 0 29 -4 27 -12z m265 -4 c-6 -17 -44 -15 -51 4 -2 8 7 12 27 12 23 0
29 -4 24 -16z m-395 -16 c-5 -15 -58 -24 -58 -9 0 11 17 19 43 20 11 1 17 -4
15 -11z m522 2 c12 -8 12 -10 -3 -16 -20 -7 -47 1 -47 16 0 12 30 13 50 0z
m-650 -44 c0 -17 -35 -30 -51 -20 -9 5 -6 11 6 21 24 17 45 17 45 -1z m380
-61 c0 -16 -6 -25 -15 -25 -9 0 -15 9 -15 25 0 16 6 25 15 25 9 0 15 -9 15
-25z m60 -40 c0 -8 -9 -15 -20 -15 -11 0 -20 7 -20 15 0 8 9 15 20 15 11 0 20
-7 20 -15z m100 0 c0 -8 -9 -15 -20 -15 -11 0 -20 7 -20 15 0 8 9 15 20 15 11
0 20 -7 20 -15z m110 0 c0 -9 -9 -15 -25 -15 -16 0 -25 6 -25 15 0 9 9 15 25
15 16 0 25 -6 25 -15z"/>
<path d="M1980 3295 l155 -155 397 0 c307 0 398 3 402 13 5 10 7 10 12 0 4
-10 45 -13 152 -13 l147 0 -140 140 c-77 77 -148 140 -157 140 -10 0 -18 7
-18 15 0 13 -68 15 -552 15 l-553 0 155 -155z m970 45 c0 -11 -4 -20 -10 -20
-5 0 -10 9 -10 20 0 11 5 20 10 20 6 0 10 -9 10 -20z m0 -105 c0 -14 -4 -25
-10 -25 -5 0 -10 11 -10 25 0 14 5 25 10 25 6 0 10 -11 10 -25z"/>
<path d="M2697 2933 c-4 -3 -7 -25 -7 -48 0 -22 -5 -46 -11 -52 -6 -6 -9 -23
-7 -39 3 -25 7 -28 41 -31 37 -2 37 -2 37 37 0 21 -4 42 -10 45 -5 3 -10 26
-10 51 0 42 -14 57 -33 37z"/>
<path d="M2669 2726 c-59 -34 -58 -121 3 -152 84 -43 168 60 106 130 -28 32
-74 41 -109 22z m75 -42 c22 -21 20 -47 -4 -69 -30 -27 -70 -7 -70 34 0 45 44
66 74 35z"/>
<path d="M2695 2660 c-8 -14 3 -30 21 -30 8 0 14 9 14 20 0 21 -24 28 -35 10z"/>
<path d="M2471 2108 c-90 -249 -166 -460 -168 -468 -3 -8 10 2 28 23 17 21 49
47 70 58 21 10 45 29 53 42 8 12 66 164 129 338 l115 316 -25 72 c-14 39 -29
71 -32 71 -4 0 -80 -204 -170 -452z"/>
<path d="M1781 2855 c-144 -26 -251 -85 -251 -138 0 -11 15 -34 34 -52 51 -48
173 -83 349 -101 l67 -6 0 26 c0 16 5 26 15 26 9 0 15 -10 15 -26 l0 -26 68 7
c159 15 286 52 338 97 84 74 7 146 -201 189 -108 22 -321 24 -434 4z m229
-165 c0 -11 -7 -20 -15 -20 -8 0 -15 9 -15 20 0 11 7 20 15 20 8 0 15 -9 15
-20z"/>
<path d="M2979 1920 c-266 -198 -485 -364 -487 -370 -3 -7 161 -10 487 -10
l491 0 0 370 c0 204 -1 370 -3 370 -2 0 -221 -162 -488 -360z m381 -70 l0
-200 -266 0 c-224 0 -265 2 -262 14 4 17 497 386 516 386 9 0 12 -47 12 -200z"/>
<path d="M3108 1847 l-216 -162 215 -3 c119 -1 218 -1 220 1 2 2 2 76 1 165
l-3 160 -217 -161z"/>
</g>
</svg>
