<?xml version="1.0" standalone="no"?>
<!DOCTYPE svg PUBLIC "-//W3C//DTD SVG 20010904//EN"
 "http://www.w3.org/TR/2001/REC-SVG-20010904/DTD/svg10.dtd">
<svg version="1.0" xmlns="http://www.w3.org/2000/svg"
 width="500.000000pt" height="500.000000pt" viewBox="0 0 500.000000 500.000000"
 preserveAspectRatio="xMidYMid meet">

<g transform="translate(0.000000,500.000000) scale(0.100000,-0.100000)"
fill="#000000" stroke="none">
<path d="M2380 4259 c-253 -13 -454 -69 -690 -190 -164 -84 -286 -175 -435
-324 -145 -145 -236 -266 -319 -425 -141 -272 -198 -505 -198 -815 0 -189 17
-325 59 -475 199 -720 850 -1251 1576 -1288 362 -19 639 36 927 184 177 91
295 178 445 329 146 146 239 269 319 425 142 276 198 507 198 825 -1 311 -57
543 -198 815 -83 159 -174 280 -319 425 -149 149 -271 240 -435 324 -298 153
-570 209 -930 190z m-294 -196 c-15 -4 -16 -7 -5 -14 10 -6 8 -8 -9 -6 -37 2
-21 26 18 25 9 0 7 -2 -4 -5z m75 -40 l34 -38 -40 35 c-22 19 -42 36 -44 38
-2 1 0 2 5 2 6 0 26 -17 45 -37z m-16 -23 c21 -22 37 -40 34 -40 -3 0 -23 18
-44 40 -21 22 -37 40 -34 40 3 0 23 -18 44 -40z m35 -149 c0 -3 -19 14 -43 37
-24 23 -47 39 -52 35 -4 -5 -5 -2 0 5 5 10 18 3 51 -29 24 -24 44 -45 44 -48z
m130 14 c30 -30 52 -55 49 -55 -2 0 -29 25 -59 55 -30 30 -52 55 -49 55 2 0
29 -25 59 -55z m30 -78 c-3 -1 -27 22 -55 53 l-49 55 54 -52 c30 -29 52 -54
50 -56z m-260 58 c0 -5 -5 -3 -10 5 -5 8 -10 20 -10 25 0 6 5 3 10 -5 5 -8 10
-19 10 -25z m-85 -24 c-6 -5 -25 10 -25 20 0 5 6 4 14 -3 8 -7 12 -15 11 -17z
m65 -6 c-7 -8 -18 -15 -24 -15 -6 0 -2 7 8 15 25 19 32 19 16 0z m253 -95 c5
0 5 5 1 12 -5 7 -3 8 6 3 9 -5 10 -1 6 16 -6 21 -6 22 5 5 9 -14 8 -21 -5 -34
-15 -15 -20 -12 -69 38 l-52 55 50 -48 c28 -26 54 -47 58 -47z m-625 13 c-10
-2 -28 -2 -40 0 -13 2 -5 4 17 4 22 1 32 -1 23 -4z m-93 -15 c-11 -6 -23 -16
-27 -22 -5 -8 -8 -7 -8 1 0 12 28 32 45 32 6 0 1 -5 -10 -11z m145 2 c0 -5 -7
-7 -15 -4 -8 4 -15 8 -15 10 0 2 7 4 15 4 8 0 15 -4 15 -10z m813 3 c-7 -2
-21 -2 -30 0 -10 3 -4 5 12 5 17 0 24 -2 18 -5z m81 -42 c11 -12 16 -24 13
-28 -4 -3 -7 -1 -7 6 0 7 -4 9 -10 6 -5 -3 -10 -2 -10 4 0 6 -10 20 -22 32
-20 19 -21 20 -3 11 11 -6 29 -20 39 -31z m-843 12 c13 -16 12 -17 -3 -4 -10
7 -18 15 -18 17 0 8 8 3 21 -13z m679 14 c0 -2 -12 -14 -27 -28 l-28 -24 24
28 c23 25 31 32 31 24z m-789 -55 c-7 -2 -18 1 -23 6 -8 8 -4 9 13 5 13 -4 18
-8 10 -11z m445 -4 c19 -23 19 -23 -2 -5 -24 20 -38 22 -28 5 5 -9 2 -8 -9 1
-15 12 -20 11 -40 -5 l-22 -19 19 23 c11 12 29 22 41 22 12 0 30 -10 41 -22z
m-349 -20 c-3 -7 -5 -2 -5 12 0 14 2 19 5 13 2 -7 2 -19 0 -25z m771 20 c14
-14 16 -44 3 -52 -4 -3 -6 6 -3 20 4 23 2 26 -19 20 -13 -3 -18 -3 -10 0 11 5
11 8 0 15 -11 7 -11 9 2 9 8 0 20 -5 27 -12z m-948 -8 c0 -5 -4 -10 -10 -10
-5 0 -10 5 -10 10 0 6 5 10 10 10 6 0 10 -4 10 -10z m1057 -22 c-3 -8 -6 -5
-6 6 -1 11 2 17 5 13 3 -3 4 -12 1 -19z m-637 8 c0 -2 -8 -10 -17 -17 -16 -13
-17 -12 -4 4 13 16 21 21 21 13z m487 -28 c-3 -8 -6 -5 -6 6 -1 11 2 17 5 13
3 -3 4 -12 1 -19z m-894 5 c-16 -6 -17 -63 -2 -63 5 0 7 -4 4 -10 -3 -5 -1
-10 6 -10 7 0 9 -3 6 -6 -13 -13 -37 19 -37 51 0 34 6 46 24 44 6 0 5 -3 -1
-6z m188 -16 c-10 -9 -11 -8 -5 6 3 10 9 15 12 12 3 -3 0 -11 -7 -18z m-43 -7
c-7 -11 -17 -20 -22 -20 -5 0 -1 9 9 20 10 11 20 20 22 20 2 0 -2 -9 -9 -20z
m222 16 c0 -2 -8 -10 -17 -17 -16 -13 -17 -12 -4 4 13 16 21 21 21 13z m85
-31 c-30 -25 -37 -37 -29 -45 9 -9 17 -9 32 -1 11 6 24 11 29 11 4 -1 -5 -8
-21 -16 -26 -15 -30 -14 -45 1 -15 15 -13 19 24 51 22 18 42 34 45 33 3 0 -13
-15 -35 -34z m75 31 c0 -2 -8 -10 -17 -17 -16 -13 -17 -12 -4 4 13 16 21 21
21 13z m565 -56 c3 -5 0 -12 -7 -16 -7 -4 -10 -4 -6 0 3 4 -8 21 -25 38 l-32
30 32 -22 c18 -11 35 -25 38 -30z m-896 -24 c-2 -2 -13 8 -23 22 l-19 27 24
-22 c12 -12 21 -24 18 -27z m666 6 c-3 -3 -11 0 -18 7 -9 10 -8 11 6 5 10 -3
15 -9 12 -12z m-275 -2 c0 -5 6 -7 13 -4 7 2 22 -6 33 -18 l19 -23 -21 18
c-11 9 -24 17 -29 17 -4 0 -1 -8 6 -17 9 -12 5 -11 -11 3 -14 12 -32 24 -40
27 -10 4 -7 6 8 6 12 1 22 -3 22 -9z m416 -12 c5 -8 2 -9 -11 -5 -9 4 -25 2
-34 -5 -14 -12 -14 -11 -2 5 16 20 37 22 47 5z m-916 -23 c0 -8 -2 -15 -4 -15
-2 0 -6 7 -10 15 -3 8 -1 15 4 15 6 0 10 -7 10 -15z m117 -17 c-3 -8 -6 -5 -6
6 -1 11 2 17 5 13 3 -3 4 -12 1 -19z m720 0 c-3 -8 -6 -5 -6 6 -1 11 2 17 5
13 3 -3 4 -12 1 -19z m79 -16 c-15 -15 -15 -15 -4 10 7 15 15 23 17 17 2 -6
-4 -18 -13 -27z m111 16 c-3 -8 -6 -5 -6 6 -1 11 2 17 5 13 3 -3 4 -12 1 -19z
m-270 -10 c-3 -8 -6 -5 -6 6 -1 11 2 17 5 13 3 -3 4 -12 1 -19z m117 -21 c7
-6 6 -7 -4 -4 -8 2 -16 14 -17 28 -1 19 -1 20 4 4 3 -11 10 -24 17 -28z m-969
15 c-3 -3 -11 0 -18 7 -9 10 -8 11 6 5 10 -3 15 -9 12 -12z m540 -10 c-3 -3
-11 0 -18 7 -9 10 -8 11 6 5 10 -3 15 -9 12 -12z m-482 1 c-7 -2 -19 -2 -25 0
-7 3 -2 5 12 5 14 0 19 -2 13 -5z m584 -45 c-2 -13 -4 -5 -4 17 -1 22 1 32 4
23 2 -10 2 -28 0 -40z m1298 28 c18 -13 18 -14 -8 -9 -15 3 -33 0 -40 -6 -18
-14 -30 -2 -16 16 15 17 40 17 64 -1z m-855 1 c0 -2 -12 -14 -27 -28 l-28 -24
24 28 c23 25 31 32 31 24z m-1139 -24 c13 -16 12 -17 -3 -4 -10 7 -18 15 -18
17 0 8 8 3 21 -13z m209 13 c0 -2 -8 -10 -17 -17 -16 -13 -17 -12 -4 4 13 16
21 21 21 13z m950 1 c0 -2 -12 -14 -27 -28 l-28 -24 24 28 c23 25 31 32 31 24z
m-663 -22 c0 -8 -7 -15 -15 -15 -12 0 -12 3 -2 15 7 8 13 15 15 15 1 0 2 -7 2
-15z m444 -2 c13 -16 12 -17 -3 -4 -17 13 -22 21 -14 21 2 0 10 -8 17 -17z
m1076 -15 c-3 -8 -6 -5 -6 6 -1 11 2 17 5 13 3 -3 4 -12 1 -19z m-1890 -3 c24
-1 46 -5 50 -10 11 -11 -124 2 -145 15 -13 8 -9 9 18 4 19 -4 54 -8 77 -9z
m931 -20 c10 -11 -78 1 -90 13 -5 5 9 6 37 2 25 -4 49 -10 53 -15z m886 9 c5
-14 4 -15 -9 -4 -17 14 -19 20 -6 20 5 0 12 -7 15 -16z m-1263 -17 c-10 -9
-11 -8 -5 6 3 10 9 15 12 12 3 -3 0 -11 -7 -18z m1314 3 c-3 -5 -14 -10 -23
-9 -14 0 -13 2 3 9 27 11 27 11 20 0z m-1452 -17 c-7 -2 -19 -2 -25 0 -7 3 -2
5 12 5 14 0 19 -2 13 -5z m1524 -19 c-3 -3 -12 -4 -19 -1 -8 3 -5 6 6 6 11 1
17 -2 13 -5z m43 -9 c19 -22 8 -25 -12 -3 -10 10 -14 18 -9 18 5 0 14 -7 21
-15z m-113 -1 c-3 -3 -12 -4 -19 -1 -8 3 -5 6 6 6 11 1 17 -2 13 -5z m-1372
-14 c-3 -5 -1 -10 6 -10 7 0 10 -3 6 -6 -9 -9 -28 6 -22 17 4 5 8 9 11 9 3 0
2 -4 -1 -10z m1302 4 c-3 -3 -12 -4 -19 -1 -8 3 -5 6 6 6 11 1 17 -2 13 -5z
m-383 -17 c16 -12 16 -13 -3 -13 -11 0 -18 3 -15 7 2 4 -2 10 -8 12 -7 3 -8 6
-2 6 5 1 18 -5 28 -12z m304 6 c-9 -2 -19 -14 -21 -26 -4 -18 -5 -17 -6 6 -1
22 3 27 22 26 15 -1 17 -3 5 -6z m159 1 c-3 -3 -12 -4 -19 -1 -8 3 -5 6 6 6
11 1 17 -2 13 -5z m-1397 -20 c0 -2 -17 -4 -37 -3 -33 1 -35 2 -13 8 23 7 50
4 50 -5z m1327 10 c-3 -3 -12 -4 -19 -1 -8 3 -5 6 6 6 11 1 17 -2 13 -5z m-74
-24 c-3 -11 -7 -20 -9 -20 -2 0 -4 9 -4 20 0 11 4 20 9 20 5 0 7 -9 4 -20z
m-389 -6 c3 -8 2 -12 -4 -9 -6 3 -10 10 -10 16 0 14 7 11 14 -7z m227 -1 c12
-16 12 -17 -2 -6 -9 7 -19 10 -22 6 -4 -3 -7 -1 -7 5 0 17 16 15 31 -5z m386
-9 c-3 -3 -12 -4 -19 -1 -8 3 -5 6 6 6 11 1 17 -2 13 -5z m-483 -19 c-4 -8
-11 -12 -16 -9 -6 4 -5 10 3 15 19 12 19 11 13 -6z m413 9 c-3 -3 -12 -4 -19
-1 -8 3 -5 6 6 6 11 1 17 -2 13 -5z m-292 -13 c3 -5 2 -12 -3 -15 -5 -3 -9 1
-9 9 0 17 3 19 12 6z m146 -9 c-7 -2 -18 1 -23 6 -8 8 -4 9 13 5 13 -4 18 -8
10 -11z m76 12 c-3 -3 -12 -4 -19 -1 -8 3 -5 6 6 6 11 1 17 -2 13 -5z m-433
-54 c-6 -6 -10 -3 -10 10 0 13 4 16 10 10 7 -7 7 -13 0 -20z m526 0 c11 -8 8
-9 -11 -4 -15 3 -30 1 -34 -5 -3 -6 -11 -8 -17 -5 -12 8 -1 -34 14 -53 7 -9 7
-13 0 -13 -14 0 -29 22 -29 45 0 41 41 59 77 35z m-535 -36 c-16 -13 -29 -29
-27 -35 1 -6 -3 -7 -10 -3 -8 5 -1 16 22 36 19 15 37 28 40 28 3 -1 -8 -12
-25 -26z m-733 -24 c20 -6 48 -24 62 -41 55 -65 52 -148 -7 -207 -61 -61 -153
-55 -216 12 -19 20 -26 40 -28 84 -5 72 19 115 80 142 49 23 59 23 109 10z
m829 -7 c13 -17 13 -17 -5 -3 -18 14 -19 13 -13 -4 6 -15 5 -17 -6 -8 -8 7
-16 11 -18 9 -2 -1 2 4 10 11 18 15 16 15 32 -5z m-91 -38 c0 -2 -9 -3 -19 -2
-11 0 -18 5 -15 9 4 6 34 0 34 -7z m101 -12 c13 -16 12 -17 -3 -4 -10 7 -18
15 -18 17 0 8 8 3 21 -13z m669 2 c10 -13 9 -15 -11 -15 -18 0 -20 3 -10 9 11
7 9 10 -10 14 -21 4 -22 4 -3 6 12 0 27 -6 34 -14z m-626 -17 c-3 -4 -9 -8
-15 -8 -5 0 -9 4 -9 8 0 5 7 9 15 9 8 0 12 -4 9 -9z m643 -50 c-3 -7 -5 -2 -5
12 0 14 2 19 5 13 2 -7 2 -19 0 -25z m-90 -10 c-3 -7 -5 -2 -5 12 0 14 2 19 5
13 2 -7 2 -19 0 -25z m30 -10 c-3 -8 -6 -5 -6 6 -1 11 2 17 5 13 3 -3 4 -12 1
-19z m130 6 c-3 -3 -12 -4 -19 -1 -8 3 -5 6 6 6 11 1 17 -2 13 -5z m43 -31 c0
-11 -3 -11 -13 -1 -8 7 -14 18 -14 25 0 9 4 10 14 2 7 -6 13 -18 13 -26z
m-237 0 c-7 -2 -19 -2 -25 0 -7 3 -2 5 12 5 14 0 19 -2 13 -5z m160 0 c-7 -2
-19 -2 -25 0 -7 3 -2 5 12 5 14 0 19 -2 13 -5z m-140 -20 c-7 -2 -19 -2 -25 0
-7 3 -2 5 12 5 14 0 19 -2 13 -5z m-66 -43 c4 -10 9 -5 13 15 l8 30 1 -32 c0
-18 -3 -33 -7 -33 -15 0 -32 24 -31 45 0 13 2 15 6 5 2 -8 7 -22 10 -30z m280
14 c-3 -3 -12 -4 -19 -1 -8 3 -5 6 6 6 11 1 17 -2 13 -5z m-73 -12 c-7 -4 -14
-16 -17 -27 -4 -15 -5 -14 -6 8 -1 20 4 27 17 27 11 0 13 -3 6 -8z m-391 -19
c-7 -2 -19 -2 -25 0 -7 3 -2 5 12 5 14 0 19 -2 13 -5z m47 -15 c0 -6 -6 -5
-15 2 -8 7 -15 14 -15 16 0 2 7 1 15 -2 8 -4 15 -11 15 -16z m237 -10 c-3 -7
-5 -2 -5 12 0 14 2 19 5 13 2 -7 2 -19 0 -25z m-360 16 c-3 -3 -12 -4 -19 -1
-8 3 -5 6 6 6 11 1 17 -2 13 -5z m-70 -10 c-3 -3 -12 -4 -19 -1 -8 3 -5 6 6 6
11 1 17 -2 13 -5z m160 0 c-3 -3 -12 -4 -19 -1 -8 3 -5 6 6 6 11 1 17 -2 13
-5z m300 -16 c-3 -8 -6 -5 -6 6 -1 11 2 17 5 13 3 -3 4 -12 1 -19z m-530 6
c-3 -3 -12 -4 -19 -1 -8 3 -5 6 6 6 11 1 17 -2 13 -5z m160 0 c-3 -3 -12 -4
-19 -1 -8 3 -5 6 6 6 11 1 17 -2 13 -5z m-70 -10 c-3 -3 -12 -4 -19 -1 -8 3
-5 6 6 6 11 1 17 -2 13 -5z m-69 -11 c-9 -2 -19 -12 -21 -21 -3 -12 -5 -10 -6
6 -1 17 4 22 22 21 15 -1 17 -3 5 -6z m577 -32 c-3 -6 -14 -10 -23 -10 -15 1
-15 2 1 6 9 2 17 9 17 15 0 6 3 9 6 5 3 -3 3 -10 -1 -16z m-587 -22 c11 0 12
-2 4 -6 -15 -6 -42 14 -42 31 0 6 5 3 11 -6 5 -10 18 -18 27 -19z m229 25 c-3
-3 -12 -4 -19 -1 -8 3 -5 6 6 6 11 1 17 -2 13 -5z m-70 -10 c-3 -3 -12 -4 -19
-1 -8 3 -5 6 6 6 11 1 17 -2 13 -5z m-1021 -12 c7 -4 40 -52 74 -107 34 -55
63 -100 64 -101 0 0 42 3 91 7 69 5 95 3 113 -7 26 -17 30 -65 7 -84 -15 -13
-227 -34 -260 -26 -12 3 -40 38 -67 83 l-48 78 -2 -92 c-1 -51 -2 -109 -2
-128 -1 -32 6 -40 84 -103 l85 -67 19 -134 20 -134 -28 -23 c-34 -30 -51 -30
-80 -1 -18 18 -26 43 -36 121 l-13 98 -74 59 c-41 32 -80 59 -87 59 -8 0 -24
-86 -50 -277 -22 -163 -44 -287 -52 -300 -19 -30 -73 -31 -100 -2 -18 20 -17
27 30 359 45 320 47 347 41 469 l-8 130 -37 -31 c-37 -31 -38 -35 -58 -157
-22 -127 -33 -151 -72 -151 -29 0 -53 26 -52 56 1 45 42 278 50 285 4 3 40 33
80 67 l73 62 142 0 c78 0 147 -4 153 -8z m951 2 c-3 -3 -12 -4 -19 -1 -8 3 -5
6 6 6 11 1 17 -2 13 -5z m164 -224 c21 -12 25 -40 7 -58 -8 -8 -63 -12 -180
-12 l-168 0 0 -149 c0 -123 -3 -152 -16 -165 -13 -13 -46 -16 -200 -16 l-184
0 0 -144 c0 -79 -3 -151 -6 -160 -5 -14 -32 -16 -200 -16 l-194 0 0 -146 c0
-81 -5 -154 -10 -165 -10 -18 -23 -19 -205 -19 l-194 0 -3 -137 -3 -138 -30 0
-30 0 0 170 0 170 198 3 197 2 0 153 c0 106 4 157 12 165 8 8 67 12 200 12
l188 0 0 146 c0 81 5 154 10 165 10 18 23 19 200 19 l190 0 0 143 c0 200 -15
187 216 187 109 0 193 -4 205 -10z m-2253 -161 c-3 -8 -7 -3 -11 10 -4 17 -3
21 5 13 5 -5 8 -16 6 -23z m280 -34 c-3 -3 -9 2 -12 12 -6 14 -5 15 5 6 7 -7
10 -15 7 -18z m-398 -29 c0 -2 -7 -6 -15 -10 -8 -3 -15 -1 -15 4 0 6 7 10 15
10 8 0 15 -2 15 -4z m37 -28 c-3 -8 -6 -5 -6 6 -1 11 2 17 5 13 3 -3 4 -12 1
-19z m70 6 c-3 -3 -12 -4 -19 -1 -8 3 -5 6 6 6 11 1 17 -2 13 -5z m-66 -71
c13 -16 12 -17 -3 -4 -10 7 -18 15 -18 17 0 8 8 3 21 -13z m446 0 c0 -9 -4
-10 -14 -2 -7 6 -13 12 -13 14 0 1 6 2 13 2 8 0 14 -6 14 -14z m-154 -8 c-3
-9 -8 -14 -10 -11 -3 3 -2 9 2 15 9 16 15 13 8 -4z m62 -25 c3 -5 2 -10 -4
-10 -5 0 -13 5 -16 10 -3 6 -2 10 4 10 5 0 13 -4 16 -10z m275 0 c0 -5 -5 -10
-11 -10 -5 0 -7 5 -4 10 3 6 8 10 11 10 2 0 4 -4 4 -10z m1618 -316 c8 -15
-26 -243 -43 -286 -9 -23 -54 -23 -62 -1 -4 9 -1 46 5 82 6 36 10 67 8 68 -2
2 -100 -82 -217 -187 -223 -198 -252 -216 -265 -163 -6 21 -2 31 17 46 53 42
409 360 409 365 0 2 -31 2 -69 0 -74 -6 -101 3 -101 31 0 31 22 39 135 49 165
14 173 14 183 -4z"/>
</g>
</svg>
